<?xml version="1.0" encoding="UTF-8"?>
<svg version="1.1" xmlns="http://www.w3.org/2000/svg" width="500" height="500">
<path d="M0 0 C2.53928355 3.80892532 2.54978622 6.60171023 2 11 C-0.90581783 23.94941637 -8.44809499 35.6086197 -15 47 C-15.66 47 -16.32 47 -17 47 C-18.41705815 51.85848508 -19.61692164 57.14923508 -18 62 C-15.98491642 62.73323796 -15.98491642 62.73323796 -14 63 C-14 62.34 -14 61.68 -14 61 C-12.34997172 59.64613064 -10.6825613 58.31321858 -9 57 C-8.505 56.01 -8.505 56.01 -8 55 C-7.01 55 -6.02 55 -5 55 C-5.350625 53.88625 -5.70125 52.7725 -6.0625 51.625 C-8.33198746 42.28392117 -5.64997217 35.09689921 -1 27 C-0.5978125 26.27941406 -0.195625 25.55882812 0.21875 24.81640625 C1.12873423 23.20118425 2.06154545 21.59884849 3 20 C3.66 20 4.32 20 5 20 C5.103125 19.46375 5.20625 18.9275 5.3125 18.375 C6 16 6 16 7.5 13.1875 C9.12431401 9.73583274 9.62234082 6.77659182 10 3 C11.32 2.67 12.64 2.34 14 2 C14.495 3.7325 14.495 3.7325 15 5.5 C17.47554581 13.0232441 21.37481083 19.98211598 25 27 C28.00030058 27.34626591 28.00030058 27.34626591 29.5625 25.5 C30.036875 25.005 30.51125 24.51 31 24 C31.66 24 32.32 24 33 24 C33 23.34 33 22.68 33 22 C38.62870885 19.06838081 41.77166905 18.7980414 48 20 C48 20.66 48 21.32 48 22 C48.66 22 49.32 22 50 22 C52.09715785 25.14573677 52.52004559 27.01456251 53.125 30.6875 C53.29257812 31.68136719 53.46015625 32.67523438 53.6328125 33.69921875 C53.75398437 34.45847656 53.87515625 35.21773438 54 36 C54.556875 34.2675 54.556875 34.2675 55.125 32.5 C56.88515085 27.80626441 59.39894396 23.52603404 63 20 C63.99 20 64.98 20 66 20 C66 19.34 66 18.68 66 18 C69.4766338 15.85663839 72.21229195 15.78722374 76.25 15.875 C77.32765625 15.89304688 78.4053125 15.91109375 79.515625 15.9296875 C80.74539063 15.96449219 80.74539063 15.96449219 82 16 C82 16.66 82 17.32 82 18 C82.66 18 83.32 18 84 18 C84.62148338 26.07928389 84.62148338 26.07928389 82.3125 29.5 C79.81876259 31.1175594 77.93785297 31.67357189 75 32 C74.19032562 29.08517222 73.78154007 27.53886783 74.9375 24.6875 C75.288125 24.130625 75.63875 23.57375 76 23 C74.35 23.33 72.7 23.66 71 24 C70.34 25.98 69.68 27.96 69 30 C68.34 30 67.68 30 67 30 C66.855625 30.721875 66.71125 31.44375 66.5625 32.1875 C66.22348098 33.88259509 65.85676275 35.57294902 65.4375 37.25 C64.74186071 41.62258985 63.97675489 46.95350978 66 51 C71.34736993 50.67591697 74.56926094 47.85484808 78 44 C82.16423243 37.89440047 84.56249761 31.74065366 86.27734375 24.59375 C87.34862327 20.74872512 89.0882343 17.49391663 91 14 C93.97 14 96.94 14 100 14 C102 18 102 18 101.20703125 21.2421875 C100.74683594 22.44101563 100.28664063 23.63984375 99.8125 24.875 C99.36519531 26.06867188 98.91789063 27.26234375 98.45703125 28.4921875 C97 32 97 32 95.3984375 35.109375 C94.03623271 37.92510557 93.35125648 40.30823236 92.8125 43.375 C92.65394531 44.24898438 92.49539063 45.12296875 92.33203125 46.0234375 C92.22246094 46.67570312 92.11289062 47.32796875 92 48 C93.32 48 94.64 48 96 48 C96 47.34 96 46.68 96 46 C96.66 46 97.32 46 98 46 C98.28359375 45.12988281 98.5671875 44.25976562 98.859375 43.36328125 C102.84556199 31.60949016 107.94541956 18.9559018 118.7578125 11.84375 C121.83653116 10.68520779 124.47059587 10.84799661 127.75 10.9375 C131.83925603 11.00572534 135.76265052 11.02549992 139.8125 10.4375 C140.864375 10.293125 141.91625 10.14875 143 10 C143.33 10.33 143.66 10.66 144 11 C143.71634011 16.38953794 142.66464356 20.02213634 140.1171875 24.7265625 C136.98406425 31.10235876 135.02947726 37.99123562 134 45 C136.44480079 44.81171228 136.44480079 44.81171228 139 44 C140.10168984 42.30230766 140.10168984 42.30230766 141 40 C142.60334412 37.62051477 144.29940514 35.31073195 146 33 C146.99 33.33 147.98 33.66 149 34 C149 36.31 149 38.62 149 41 C148.34 41 147.68 41 147 41 C146.855625 41.61875 146.71125 42.2375 146.5625 42.875 C146 45 146 45 145 47 C144.34 47 143.68 47 143 47 C143 47.66 143 48.32 143 49 C139.59851205 52.16417484 136.58397162 54.82462266 132 56 C128.48430284 55.6651717 126.99461723 54.99641149 124 53 C122.8125 50.875 122.8125 50.875 122 49 C121.401875 49.78375 120.80375 50.5675 120.1875 51.375 C117.77437406 54.27075113 116.19408224 55.82915992 112.40625 56.37109375 C109.52507396 56.43692707 106.84905835 56.45077267 104 56 C101.8125 53.5 101.8125 53.5 101 51 C100.50371094 51.49371094 100.00742187 51.98742187 99.49609375 52.49609375 C95.14567102 56.59886433 92.25937252 59 86 59 C85.01 58.67 84.02 58.34 83 58 C83 57.34 83 56.68 83 56 C82.34 56 81.68 56 81 56 C80.67 54.68 80.34 53.36 80 52 C79.38125 52.66 78.7625 53.32 78.125 54 C76 56 76 56 74 56 C74 56.66 74 57.32 74 58 C73.01 58 72.02 58 71 58 C71 58.66 71 59.32 71 60 C67.12822235 61.29059255 63.01710965 61.74125238 59 61 C56.0625 58.5625 56.0625 58.5625 54 56 C53.67 55.67 53.34 55.34 53 55 C52.76807135 53.48530552 52.58784762 51.96245438 52.4375 50.4375 C52.35371094 49.61121094 52.26992188 48.78492188 52.18359375 47.93359375 C52.12300781 47.29550781 52.06242188 46.65742188 52 46 C51.731875 46.56847656 51.46375 47.13695312 51.1875 47.72265625 C47.49611833 54.99613526 42.73834939 59.50776707 36 64 C33.30078125 64.1953125 33.30078125 64.1953125 30.3125 64.125 C29.31863281 64.10695313 28.32476562 64.08890625 27.30078125 64.0703125 C26.54152344 64.04710937 25.78226562 64.02390625 25 64 C25 63.34 25 62.68 25 62 C24.40574219 62.22816406 23.81148438 62.45632813 23.19921875 62.69140625 C16.66017225 64.95922487 10.76672321 65.91861359 4 64 C1.29371088 62.29917246 -0.87085016 60.37621842 -3 58 C-3.53625 59.051875 -4.0725 60.10375 -4.625 61.1875 C-7.13855254 65.61314786 -10.40068361 68.70034181 -15 71 C-16.78752492 71.14754174 -18.5816284 71.2211522 -20.375 71.25 C-21.33148438 71.27578125 -22.28796875 71.3015625 -23.2734375 71.328125 C-26.37892147 70.95439914 -27.70536066 70.06626291 -30 68 C-31.36125 69.175625 -31.36125 69.175625 -32.75 70.375 C-37.98884144 74.67572332 -41.20458878 75.43145468 -48 75 C-48.99 74.34 -49.98 73.68 -51 73 C-51 72.34 -51 71.68 -51 71 C-51.66 71 -52.32 71 -53 71 C-53 69.68 -53 68.36 -53 67 C-53.48210937 67.433125 -53.96421875 67.86625 -54.4609375 68.3125 C-55.09257812 68.869375 -55.72421875 69.42625 -56.375 70 C-57.00148437 70.556875 -57.62796875 71.11375 -58.2734375 71.6875 C-60 73 -60 73 -62 73 C-62 73.66 -62 74.32 -62 75 C-67.15298458 78.32796921 -70.81699047 79.90185699 -77 80 C-82.27234178 78.14491678 -82.27234178 78.14491678 -84.1171875 75.2421875 C-86.95289769 68.03998553 -86.70407971 59.19456503 -84 52 C-81.37224859 46.35919638 -78.75639824 41.13055636 -74 37 C-73.34 37 -72.68 37 -72 37 C-72 36.34 -72 35.68 -72 35 C-68.7469822 33.07741264 -66.19901177 32.67617703 -62.4375 32.625 C-61.48746094 32.59664063 -60.53742188 32.56828125 -59.55859375 32.5390625 C-57 33 -57 33 -55.1875 34.75 C-53.2203801 38.47717456 -53.35024766 41.894422 -54 46 C-56.08003398 49.93720717 -58.63313216 53.08204787 -62 56 C-62.66 56 -63.32 56 -64 56 C-64 56.66 -64 57.32 -64 58 C-64.99 58 -65.98 58 -67 58 C-67 58.66 -67 59.32 -67 60 C-70.08809695 61.76462683 -71.23312136 62 -75 62 C-74.01 65.465 -74.01 65.465 -73 69 C-66.84576594 68.63074596 -64.27296499 67.17122773 -60 63 C-59.67 62.34 -59.34 61.68 -59 61 C-58.34 61 -57.68 61 -57 61 C-57 60.34 -57 59.68 -57 59 C-56.34 59 -55.68 59 -55 59 C-54.89171875 57.72898437 -54.7834375 56.45796875 -54.671875 55.1484375 C-54.07365291 49.79999733 -52.75920417 44.78085935 -51.25 39.625 C-50.84793335 38.23909668 -50.84793335 38.23909668 -50.43774414 36.82519531 C-48.48313333 30.25696212 -46.20640108 24.07037098 -43 18 C-42.61199219 17.19433594 -42.22398437 16.38867188 -41.82421875 15.55859375 C-39.17481155 10.32018928 -36.15886146 6.0064888 -31 3 C-27.67018893 2.42368654 -26.05890606 2.34274797 -23.1875 4.125 C-21.05857496 7.48646059 -20.65515477 10.34987281 -21.47265625 14.26171875 C-22.22489192 16.88015658 -23.08374195 19.43447746 -24 22 C-24.268125 22.78375 -24.53625 23.5675 -24.8125 24.375 C-28.00170287 33.0314078 -32.80789536 41.07798059 -37.81640625 48.80078125 C-41.41281095 54.37304203 -42.78502724 58.33584434 -43 65 C-42.34 65 -41.68 65 -41 65 C-41 65.66 -41 66.32 -41 67 C-39.68677212 66.02180976 -38.37443848 65.0424189 -37.0625 64.0625 C-36.33160156 63.51722656 -35.60070312 62.97195313 -34.84765625 62.41015625 C-33.0865547 61.13092062 -33.0865547 61.13092062 -32 60 C-31.97186065 58.14592982 -31.95311916 56.29171792 -31.9375 54.4375 C-30.87706221 37.97546578 -23.45523166 21.53770175 -16 7 C-15.34 7 -14.68 7 -14 7 C-13.34 5.68 -12.68 4.36 -12 3 C-11.34 3 -10.68 3 -10 3 C-10 2.34 -10 1.68 -10 1 C-6.26947743 -0.81196811 -3.9730095 -1.39592226 0 0 Z M-6 11 C-5 13 -5 13 -5 13 Z M-7 13 C-8.36878548 15.74356126 -9.72013177 18.49355105 -11.0625 21.25 C-11.64741211 22.41595703 -11.64741211 22.41595703 -12.24414062 23.60546875 C-12.60830078 24.35957031 -12.97246094 25.11367187 -13.34765625 25.890625 C-13.68804932 26.58188477 -14.02844238 27.27314453 -14.37915039 27.98535156 C-15.11635505 30.37757053 -14.80784795 31.66570847 -14 34 C-14 33.01 -14 32.02 -14 31 C-13.34 31 -12.68 31 -12 31 C-10.96483652 28.75564555 -9.94685023 26.50593133 -8.9375 24.25 C-8.64294922 23.61578125 -8.34839844 22.9815625 -8.04492188 22.328125 C-6.4500362 18.72555971 -5.79220055 16.74166951 -7 13 Z M-30 15 C-31.37000201 17.93036877 -32.71818552 20.87026914 -34.0625 23.8125 C-34.45244141 24.64587891 -34.84238281 25.47925781 -35.24414062 26.33789062 C-35.60830078 27.14033203 -35.97246094 27.94277344 -36.34765625 28.76953125 C-36.68804932 29.50792236 -37.02844238 30.24631348 -37.37915039 31.00708008 C-38.26677385 33.17314937 -38.26677385 33.17314937 -37 36 C-35.67997444 33.44113496 -34.36886218 30.87832932 -33.0625 28.3125 C-32.68931641 27.59126953 -32.31613281 26.87003906 -31.93164062 26.12695312 C-30.06034761 22.43494258 -28.51730444 19.16306904 -28 15 C-28.66 15 -29.32 15 -30 15 Z M123 19 C123 19.66 123 20.32 123 21 C122.34 21 121.68 21 121 21 C116.19220409 29.03833071 112.39127092 36.46324437 113 46 C113.66 46.33 114.32 46.66 115 47 C123.17612959 39.27809983 127.56025047 29.9922781 130 19 C126.98968256 18.06576355 126.13349732 17.95550089 123 19 Z M36.5 29.375 C33.67953691 32.84888415 33.07487956 36.2739266 32.45703125 40.6328125 C32 43 32 43 30.98828125 45.0078125 C29.84324163 47.31599513 29.60065486 49.19257828 29.375 51.75 C29.30023438 52.54921875 29.22546875 53.3484375 29.1484375 54.171875 C29.07496094 55.07679688 29.07496094 55.07679688 29 56 C32.84443883 56.40518217 32.84443883 56.40518217 34.78125 54.63671875 C40.2889838 48.39044792 43.38125639 41.86155696 44.4375 33.5625 C43.93037346 30.59218741 43.12370875 29.12370875 41 27 C38.66695339 26.77041685 38.66695339 26.77041685 36.5 29.375 Z M19 32 C20 34 20 34 20 34 Z M20 35 C19.93941406 35.845625 19.87882812 36.69125 19.81640625 37.5625 C19.36040967 43.7359922 18.84179888 49.86689384 18 56 C20.74066274 54.81768639 20.74066274 54.81768639 23 52 C23.87925943 45.96469499 23.55194201 40.56507837 21 35 C20.67 35 20.34 35 20 35 Z M-39 36 C-38 39 -38 39 -38 39 Z M-67 41 C-67 41.66 -67 42.32 -67 43 C-67.66 43 -68.32 43 -69 43 C-69.69937202 44.4317616 -70.38412718 45.87067032 -71.0625 47.3125 C-71.63677734 48.51326172 -71.63677734 48.51326172 -72.22265625 49.73828125 C-73.29735514 52.12028753 -73.29735514 52.12028753 -72 55 C-70.70145279 53.92492371 -69.41141639 52.83956264 -68.125 51.75 C-67.04605469 50.84507812 -67.04605469 50.84507812 -65.9453125 49.921875 C-63.98009571 47.98033552 -62.94963007 46.57899535 -62 44 C-62 42.68 -62 41.36 -62 40 C-64.9254644 39.7763932 -64.9254644 39.7763932 -67 41 Z " fill="#184B34" transform="translate(258,224)"/>
<path d="M0 0 C2.4375 0.6875 2.4375 0.6875 4.4375 1.6875 C4.4375 2.3475 4.4375 3.0075 4.4375 3.6875 C5.0975 3.6875 5.7575 3.6875 6.4375 3.6875 C9.52467443 29.55301551 -1.65441371 62.81185765 -17.125 83.8125 C-19.93545085 87.16751483 -22.5237131 89.83638934 -26.5625 91.6875 C-30.1875 91.75 -30.1875 91.75 -33.5625 90.6875 C-38.12082375 86.00922036 -38.7702452 82.35790573 -39.125 76.0625 C-39.269375 73.62875 -39.41375 71.195 -39.5625 68.6875 C-42.8625 74.9575 -46.1625 81.2275 -49.5625 87.6875 C-50.2225 87.6875 -50.8825 87.6875 -51.5625 87.6875 C-51.789375 88.285625 -52.01625 88.88375 -52.25 89.5 C-54.01418796 92.44031326 -55.38558939 93.37529779 -58.5625 94.6875 C-61.49002354 94.7830238 -63.64481482 94.35713266 -66.5625 93.6875 C-71.38959014 86.44686478 -69.7791518 75.99386506 -68.5625 67.6875 C-67.34805592 62.21071694 -65.44437305 56.96336697 -63.5625 51.6875 C-62.85113364 49.50098445 -62.14252403 47.31356882 -61.4375 45.125 C-60.38332357 41.97947357 -59.27978485 38.90856377 -57.9375 35.875 C-55.10487599 29.30846253 -54.27441113 23.74567743 -54.5625 16.6875 C-57.71563544 16.22606555 -59.7935935 16.14305689 -62.44921875 18.0234375 C-63.67165425 19.11517235 -64.87218033 20.23205383 -66.046875 21.375 C-67.5625 22.6875 -67.5625 22.6875 -69.5625 22.6875 C-69.871875 23.656875 -70.18125 24.62625 -70.5 25.625 C-71.5625 28.6875 -71.5625 28.6875 -72.5625 29.6875 C-72.66219841 31.43515452 -72.69218045 33.1870103 -72.6875 34.9375 C-72.69007812 35.89140625 -72.69265625 36.8453125 -72.6953125 37.828125 C-72.56878725 40.55213928 -72.17255381 43.03425009 -71.5625 45.6875 C-75.59348931 46.83921123 -77.85591391 46.69106005 -81.5625 44.6875 C-84.98657693 39.55138461 -84.29826154 33.66474865 -83.5625 27.6875 C-79.86904878 18.56559555 -70.75817527 11.78533763 -62.1875 7.5 C-56.79677581 5.83144251 -53.11275328 5.20463422 -47.75 6.875 C-44.49640025 8.72508613 -43.32976227 9.47524093 -41.5625 12.6875 C-41.23671929 15.59604669 -41.08780689 18.22061114 -41.125 21.125 C-41.13039795 21.92397705 -41.1357959 22.7229541 -41.14135742 23.54614258 C-41.35407224 31.94291279 -43.58077125 39.21209591 -46.96875 46.86328125 C-49.05668877 51.69192901 -50.6392871 56.68386578 -52.25 61.6875 C-52.57033203 62.6465625 -52.89066406 63.605625 -53.22070312 64.59375 C-54.90647128 69.82717949 -55.9674071 74.18687524 -55.5625 79.6875 C-54.58191648 78.23011898 -53.60307868 76.77156325 -52.625 75.3125 C-52.07972656 74.50039063 -51.53445312 73.68828125 -50.97265625 72.8515625 C-49.55156121 70.76030816 -49.55156121 70.76030816 -48.5625 68.6875 C-47.9025 68.6875 -47.2425 68.6875 -46.5625 68.6875 C-46.36672363 67.81834961 -46.36672363 67.81834961 -46.16699219 66.93164062 C-45.57910368 64.74914017 -44.82368469 62.83700747 -43.890625 60.78125 C-43.55828857 60.04326172 -43.22595215 59.30527344 -42.88354492 58.54492188 C-42.5301001 57.76697266 -42.17665527 56.98902344 -41.8125 56.1875 C-41.08374258 54.56290021 -40.35587877 52.93789928 -39.62890625 51.3125 C-39.2745752 50.52101563 -38.92024414 49.72953125 -38.55517578 48.9140625 C-35.29235849 41.59559381 -32.27682687 34.43720132 -30.3359375 26.6484375 C-29.5625 24.6875 -29.5625 24.6875 -26.5625 22.6875 C-20.10966981 23.14033019 -20.10966981 23.14033019 -17.5625 25.6875 C-17.10660748 29.42581864 -17.67724905 32.25831397 -18.9453125 35.73046875 C-20.70967679 40.89046138 -21.78853479 46.07634751 -22.75 51.4375 C-22.9243457 52.39672363 -23.09869141 53.35594727 -23.27832031 54.34423828 C-24.51793106 61.54295628 -25.05902191 68.37759408 -24.5625 75.6875 C-15.46421983 66.58921983 -12.40859821 52.69443945 -9.09521484 40.6081543 C-8.58292914 38.76115537 -8.03819971 36.92324867 -7.4921875 35.0859375 C-4.41465673 23.83614016 -4.07375077 13.17213689 -5.5625 1.6875 C-2.5625 -0.3125 -2.5625 -0.3125 0 0 Z " fill="#134730" transform="translate(176.5625,218.3125)"/>
<path d="M0 0 C0.495 0.495 0.495 0.495 1 1 C0.71634011 6.38953794 -0.33535644 10.02213634 -2.8828125 14.7265625 C-6.01593575 21.10235876 -7.97052274 27.99123562 -9 35 C-6.55519921 34.81171228 -6.55519921 34.81171228 -4 34 C-2.89831016 32.30230766 -2.89831016 32.30230766 -2 30 C-0.39665588 27.62051477 1.29940514 25.31073195 3 23 C4.485 23.495 4.485 23.495 6 24 C6 26.31 6 28.62 6 31 C5.34 31 4.68 31 4 31 C3.855625 31.61875 3.71125 32.2375 3.5625 32.875 C3 35 3 35 2 37 C1.34 37 0.68 37 0 37 C0 37.66 0 38.32 0 39 C-3.40148795 42.16417484 -6.41602838 44.82462266 -11 46 C-14.51569716 45.6651717 -16.00538277 44.99641149 -19 43 C-20.1875 40.875 -20.1875 40.875 -21 39 C-21.598125 39.78375 -22.19625 40.5675 -22.8125 41.375 C-25.22562594 44.27075113 -26.80591776 45.82915992 -30.59375 46.37109375 C-33.47492604 46.43692707 -36.15094165 46.45077267 -39 46 C-41.1875 43.5 -41.1875 43.5 -42 41 C-42.74443359 41.74056641 -42.74443359 41.74056641 -43.50390625 42.49609375 C-47.85432898 46.59886433 -50.74062748 49 -57 49 C-57.99 48.67 -58.98 48.34 -60 48 C-60 47.34 -60 46.68 -60 46 C-60.66 46 -61.32 46 -62 46 C-62.495 44.02 -62.495 44.02 -63 42 C-63.61875 42.66 -64.2375 43.32 -64.875 44 C-67 46 -67 46 -69 46 C-69 46.66 -69 47.32 -69 48 C-69.99 48 -70.98 48 -72 48 C-72 48.66 -72 49.32 -72 50 C-75.87177765 51.29059255 -79.98289035 51.74125238 -84 51 C-86.9375 48.5625 -86.9375 48.5625 -89 46 C-89.495 45.505 -89.495 45.505 -90 45 C-90.23192865 43.48530552 -90.41215238 41.96245438 -90.5625 40.4375 C-90.64628906 39.61121094 -90.73007812 38.78492188 -90.81640625 37.93359375 C-90.87699219 37.29550781 -90.93757813 36.65742188 -91 36 C-91.4021875 36.85271484 -91.4021875 36.85271484 -91.8125 37.72265625 C-95.50388167 44.99613526 -100.26165061 49.50776707 -107 54 C-109.26171875 54.1953125 -109.26171875 54.1953125 -111.6875 54.125 C-112.49574219 54.10695313 -113.30398438 54.08890625 -114.13671875 54.0703125 C-114.75160156 54.04710937 -115.36648438 54.02390625 -116 54 C-116.495 52.515 -116.495 52.515 -117 51 C-117.66 51 -118.32 51 -119 51 C-117.25 47.125 -117.25 47.125 -115 46 C-114.2575 45.95875 -113.515 45.9175 -112.75 45.875 C-108.44882587 44.50644459 -106.39058878 41.7397978 -104 38 C-101.47428546 32.62994231 -99.09695273 27.02031513 -100 21 C-100.66 20.01 -101.32 19.02 -102 18 C-105.16115776 19.36983503 -105.9927092 19.9890638 -108 23 C-108.41580929 24.65236632 -108.76539345 26.32222185 -109.0625 28 C-109.56510094 30.79130441 -110.10053023 33.3015907 -111 36 C-111.99 36 -112.98 36 -114 36 C-114.13277344 35.18015625 -114.26554687 34.3603125 -114.40234375 33.515625 C-114.57894531 32.43796875 -114.75554687 31.3603125 -114.9375 30.25 C-115.19853516 28.64898437 -115.19853516 28.64898437 -115.46484375 27.015625 C-115.90920885 24.10800475 -115.90920885 24.10800475 -116.7109375 21.8125 C-117 20 -117 20 -114.6875 16.75 C-113.800625 15.8425 -112.91375 14.935 -112 14 C-111.34 14 -110.68 14 -110 14 C-110 13.34 -110 12.68 -110 12 C-104.37129115 9.06838081 -101.22833095 8.7980414 -95 10 C-95 10.66 -95 11.32 -95 12 C-94.34 12 -93.68 12 -93 12 C-90.90284215 15.14573677 -90.47995441 17.01456251 -89.875 20.6875 C-89.70742188 21.68136719 -89.53984375 22.67523438 -89.3671875 23.69921875 C-89.24601562 24.45847656 -89.12484375 25.21773438 -89 26 C-88.62875 24.845 -88.2575 23.69 -87.875 22.5 C-86.11484915 17.80626441 -83.60105604 13.52603404 -80 10 C-79.01 10 -78.02 10 -77 10 C-77 9.34 -77 8.68 -77 8 C-73.5233662 5.85663839 -70.78770805 5.78722374 -66.75 5.875 C-65.67234375 5.89304688 -64.5946875 5.91109375 -63.484375 5.9296875 C-62.25460937 5.96449219 -62.25460937 5.96449219 -61 6 C-61 6.66 -61 7.32 -61 8 C-60.34 8 -59.68 8 -59 8 C-58.37851662 16.07928389 -58.37851662 16.07928389 -60.6875 19.5 C-63.18123741 21.1175594 -65.06214703 21.67357189 -68 22 C-68.80967438 19.08517222 -69.21845993 17.53886783 -68.0625 14.6875 C-67.5365625 13.8521875 -67.5365625 13.8521875 -67 13 C-68.65 13.33 -70.3 13.66 -72 14 C-72.66 15.98 -73.32 17.96 -74 20 C-74.66 20 -75.32 20 -76 20 C-76.144375 20.721875 -76.28875 21.44375 -76.4375 22.1875 C-76.77651902 23.88259509 -77.14323725 25.57294902 -77.5625 27.25 C-78.25813929 31.62258985 -79.02324511 36.95350978 -77 41 C-71.65263007 40.67591697 -68.43073906 37.85484808 -65 34 C-60.83576757 27.89440047 -58.43750239 21.74065366 -56.72265625 14.59375 C-55.65137673 10.74872512 -53.9117657 7.49391663 -52 4 C-49.03 4 -46.06 4 -43 4 C-41 8 -41 8 -41.79296875 11.2421875 C-42.25316406 12.44101563 -42.71335937 13.63984375 -43.1875 14.875 C-43.63480469 16.06867188 -44.08210938 17.26234375 -44.54296875 18.4921875 C-46 22 -46 22 -47.6015625 25.109375 C-48.96376729 27.92510557 -49.64874352 30.30823236 -50.1875 33.375 C-50.42533203 34.68597656 -50.42533203 34.68597656 -50.66796875 36.0234375 C-50.77753906 36.67570312 -50.88710938 37.32796875 -51 38 C-49.68 38 -48.36 38 -47 38 C-47 37.34 -47 36.68 -47 36 C-46.34 36 -45.68 36 -45 36 C-44.71640625 35.12988281 -44.4328125 34.25976562 -44.140625 33.36328125 C-40.14524604 21.58238645 -35.04810733 9.01851633 -24.26171875 1.84375 C-21.0905087 0.66070791 -18.30842323 0.84888477 -14.9375 0.9375 C-9.74181336 1.06289433 -5.11542376 -0.26923283 0 0 Z M-20 9 C-20 9.66 -20 10.32 -20 11 C-20.66 11 -21.32 11 -22 11 C-26.80779591 19.03833071 -30.60872908 26.46324437 -30 36 C-29.34 36.33 -28.68 36.66 -28 37 C-19.82387041 29.27809983 -15.43974953 19.9922781 -13 9 C-16.01031744 8.06576355 -16.86650268 7.95550089 -20 9 Z " fill="#144731" transform="translate(401,234)"/>
<path d="M0 0 C0.88162811 0.00086609 1.76325623 0.00173218 2.67160034 0.00262451 C5.20047385 0.00907202 7.72902685 0.02520681 10.2578125 0.046875 C11.36675117 0.0534462 11.36675117 0.0534462 12.49809265 0.06015015 C28.30722024 0.27161117 28.30722024 0.27161117 32.875 4.25 C32.875 5.57 32.875 6.89 32.875 8.25 C31.91424561 8.24476318 30.95349121 8.23952637 29.96362305 8.23413086 C19.26712237 8.18129409 8.57144058 8.18249578 -2.125 8.25 C-3.57350342 8.25870117 -3.57350342 8.25870117 -5.05126953 8.26757812 C-16.78566704 8.4152735 -28.38399027 10.08557156 -40 11.625 C-40.79895691 11.73000824 -41.59791382 11.83501648 -42.42108154 11.94320679 C-51.19849927 13.10942843 -59.80520475 14.48280983 -68.41650391 16.58935547 C-71.72077783 17.39531953 -75.02955847 18.01457584 -78.375 18.625 C-86.01430901 20.13409584 -93.38319654 22.26241944 -100.82128906 24.54980469 C-103.23754006 25.28420569 -105.66040123 25.99221759 -108.0859375 26.6953125 C-126.0255603 31.57757278 -126.0255603 31.57757278 -142.74609375 39.40625 C-146.05540718 41.21202565 -147.68662459 41.75258531 -151.375 41.625 C-152.20515625 41.61210937 -153.0353125 41.59921875 -153.890625 41.5859375 C-156.125 41.25 -156.125 41.25 -159.125 39.25 C-159.3125 35.625 -159.3125 35.625 -159.125 32.25 C-158.135 31.92 -157.145 31.59 -156.125 31.25 C-156.125 30.59 -156.125 29.93 -156.125 29.25 C-140.91495654 21.84777885 -140.91495654 21.84777885 -133.56640625 19.953125 C-131.43351423 19.3388521 -129.42497882 18.61958071 -127.35546875 17.82421875 C-123.24935326 16.26312148 -119.10713714 14.98448379 -114.875 13.8125 C-113.72523682 13.49381958 -113.72523682 13.49381958 -112.55224609 13.16870117 C-103.50564213 10.72675712 -94.33749423 8.93875007 -85.125 7.25 C-84.01382813 7.04503906 -82.90265625 6.84007812 -81.7578125 6.62890625 C-54.80971316 1.91846612 -27.3277767 -0.05092113 0 0 Z " fill="#1A4B36" transform="translate(327.125,292.75)"/>
<path d="M0 0 C2.0625 0.4375 2.0625 0.4375 4 1 C4.2475 2.14855469 4.495 3.29710937 4.75 4.48046875 C5.90626322 9.10043245 7.80662947 13.10456632 10 17.3125 C10.35578125 18.01439453 10.7115625 18.71628906 11.078125 19.43945312 C12.59363575 22.40544338 14.15081272 25.22621909 16 28 C16.5625 29.9375 16.5625 29.9375 17 32 C17.185625 32.5775 17.37125 33.155 17.5625 33.75 C18.22871543 37.17625079 18.05811653 40.51300798 18 44 C18.99 44.495 18.99 44.495 20 45 C19.505 49.95 19.505 49.95 19 55 C17.02 55.495 17.02 55.495 15 56 C14.34 56.99 13.68 57.98 13 59 C13.66 59 14.32 59 15 59 C15.33 59.99 15.66 60.98 16 62 C15.34 62 14.68 62 14 62 C14 61.34 14 60.68 14 60 C13.40574219 60.22816406 12.81148438 60.45632813 12.19921875 60.69140625 C5.66017225 62.95922487 -0.23327679 63.91861359 -7 62 C-9.70628912 60.29917246 -11.87085016 58.37621842 -14 56 C-14.66 56.99 -15.32 57.98 -16 59 C-16 57.35 -16 55.7 -16 54 C-16.99 53.67 -17.98 53.34 -19 53 C-18.01 53 -17.02 53 -16 53 C-16.350625 51.88625 -16.70125 50.7725 -17.0625 49.625 C-19.33198746 40.28392117 -16.64997217 33.09689921 -12 25 C-11.5978125 24.27941406 -11.195625 23.55882812 -10.78125 22.81640625 C-9.87126577 21.20118425 -8.93845455 19.59884849 -8 18 C-7.34 18 -6.68 18 -6 18 C-5.896875 17.46375 -5.79375 16.9275 -5.6875 16.375 C-5 14 -5 14 -3.5 11.1875 C-1.8757644 7.73599935 -1.44301674 4.7656423 -1 1 C-0.67 0.67 -0.34 0.34 0 0 Z M8 30 C9 32 9 32 9 32 Z M9 33 C8.93941406 33.845625 8.87882812 34.69125 8.81640625 35.5625 C8.36040967 41.7359922 7.84179888 47.86689384 7 54 C9.74066274 52.81768639 9.74066274 52.81768639 12 50 C12.87925943 43.96469499 12.55194201 38.56507837 10 33 C9.67 33 9.34 33 9 33 Z " fill="#D09870" transform="translate(269,226)"/>
<path d="M0 0 C0.99 0 1.98 0 3 0 C3.66 6.6 4.32 13.2 5 20 C5.99 20 6.98 20 8 20 C8 19.34 8 18.68 8 18 C10.08203125 16.0546875 10.08203125 16.0546875 12.8125 13.875 C13.70582031 13.15054688 14.59914063 12.42609375 15.51953125 11.6796875 C18 10 18 10 21 10 C20.46968862 14.5076467 18.74778884 17.41954788 16 21 C15.34 21 14.68 21 14 21 C14 21.66 14 22.32 14 23 C13.34 23 12.68 23 12 23 C12 23.66 12 24.32 12 25 C18.25948114 27.13391403 24.42208127 27.58955515 31 28 C31 28.99 31 29.98 31 31 C18.51480638 34.44419134 18.51480638 34.44419134 12 34 C12 34.99 12 35.98 12 37 C12.66 37 13.32 37 14 37 C15.98046875 39.046875 15.98046875 39.046875 18.1875 41.75 C18.92355469 42.63171875 19.65960938 43.5134375 20.41796875 44.421875 C22 47 22 47 21.73828125 49.328125 C21.49464844 49.87984375 21.25101562 50.4315625 21 51 C17.01328937 49.63312778 14.11505367 47.84804907 11 45 C11 44.34 11 43.68 11 43 C9.35 42.67 7.7 42.34 6 42 C3.5978396 46.8043208 3.38877771 51.73103895 3 57 C1.68 57 0.36 57 -1 57 C-3.09173082 54.90826918 -2.44335641 50.59417121 -2.62109375 47.76171875 C-2.99056889 45.06874012 -3.63567563 43.32542737 -5 41 C-5.74765625 41.5775 -6.4953125 42.155 -7.265625 42.75 C-8.25046875 43.4925 -9.2353125 44.235 -10.25 45 C-11.22453125 45.7425 -12.1990625 46.485 -13.203125 47.25 C-16 49 -16 49 -20 49 C-18.67917738 44.64128534 -16.37068021 41.92381578 -13.33984375 38.6484375 C-11.77953445 36.92688805 -11.77953445 36.92688805 -11 34 C-11.70125 34.02320313 -12.4025 34.04640625 -13.125 34.0703125 C-19.15558862 34.18502478 -24.22443873 33.74356567 -30 32 C-30 30.68 -30 29.36 -30 28 C-21.09 26.515 -21.09 26.515 -12 25 C-13.9296323 21.1407354 -16.10744173 18.16520546 -18.7578125 14.8046875 C-20 13 -20 13 -20 11 C-16.47730515 10.5974063 -15.20059192 10.86627205 -12.1875 12.875 C-11.465625 13.57625 -10.74375 14.2775 -10 15 C-10 15.66 -10 16.32 -10 17 C-7.69 17.66 -5.38 18.32 -3 19 C-2.86722656 17.87980469 -2.73445313 16.75960937 -2.59765625 15.60546875 C-2.41943431 14.13279271 -2.24103989 12.66013753 -2.0625 11.1875 C-1.97548828 10.44951172 -1.88847656 9.71152344 -1.79882812 8.95117188 C-1.41783454 5.83266879 -0.99630626 2.98891878 0 0 Z " fill="#D09870" transform="translate(270,166)"/>
<path d="M0 0 C-0.38388731 5.37442238 -1.3331674 9.01809381 -3.8828125 13.7265625 C-7.01593575 20.10235876 -8.97052274 26.99123562 -10 34 C-7.55519921 33.81171228 -7.55519921 33.81171228 -5 33 C-3.89831016 31.30230766 -3.89831016 31.30230766 -3 29 C-1.39665588 26.62051477 0.29940514 24.31073195 2 22 C2.99 22.33 3.98 22.66 5 23 C5 25.31 5 27.62 5 30 C4.34 30 3.68 30 3 30 C2.855625 30.61875 2.71125 31.2375 2.5625 31.875 C2 34 2 34 1 36 C0.34 36 -0.32 36 -1 36 C-1 36.66 -1 37.32 -1 38 C-4.40148795 41.16417484 -7.41602838 43.82462266 -12 45 C-15.51569716 44.6651717 -17.00538277 43.99641149 -20 42 C-21.1875 39.875 -21.1875 39.875 -22 38 C-22.598125 38.78375 -23.19625 39.5675 -23.8125 40.375 C-26.2455633 43.29467596 -27.7882757 44.8613629 -31.62890625 45.30078125 C-33.08103516 45.30658203 -33.08103516 45.30658203 -34.5625 45.3125 C-35.53316406 45.32925781 -36.50382812 45.34601563 -37.50390625 45.36328125 C-38.32761719 45.24339844 -39.15132813 45.12351562 -40 45 C-42 42 -42 42 -42 39 C-42.99 38.67 -43.98 38.34 -45 38 C-44.42724319 33.99070234 -43.09160006 31.43022411 -41 28 C-39.89435062 24.94320464 -38.96338126 21.87305504 -38.0625 18.75 C-37 16 -37 16 -34 14 C-33.67 13.01 -33.34 12.02 -33 11 C-31.35 10.67 -29.7 10.34 -28 10 C-25.96557358 14.78730414 -25.94431186 17.13601741 -27.875 21.9375 C-29.61220365 26.61862258 -30.45043503 30.04521472 -30 35 C-25.12407546 32.939896 -23.31936719 29.60749712 -21 25 C-20.15733136 22.61056625 -19.42042638 20.23447131 -18.7734375 17.78515625 C-18.51820313 17.19605469 -18.26296875 16.60695312 -18 16 C-17.01 15.67 -16.02 15.34 -15 15 C-12.22617142 11.02943602 -10.38720962 6.90232302 -11 2 C-9.68 2.33 -8.36 2.66 -7 3 C-7.495 2.505 -7.495 2.505 -8 2 C-4.77208445 -0.1519437 -3.71599191 -0.20086443 0 0 Z " fill="#0F442C" transform="translate(402,235)"/>
<path d="M0 0 C2.4375 0.6875 2.4375 0.6875 4.4375 1.6875 C4.4375 2.3475 4.4375 3.0075 4.4375 3.6875 C5.0975 3.6875 5.7575 3.6875 6.4375 3.6875 C8.59368554 21.75283831 3.44444808 37.37404943 -2.625 54.1875 C-2.96547363 55.13157715 -3.30594727 56.0756543 -3.65673828 57.04833984 C-5.38406113 61.75287802 -7.1975747 66.26707887 -9.5625 70.6875 C-10.18125 69.883125 -10.8 69.07875 -11.4375 68.25 C-13.30414041 65.64875481 -13.30414041 65.64875481 -15.5625 64.6875 C-15.5625 65.3475 -15.5625 66.0075 -15.5625 66.6875 C-16.2225 66.3575 -16.8825 66.0275 -17.5625 65.6875 C-17.18738281 64.74132812 -16.81226563 63.79515625 -16.42578125 62.8203125 C-8.68441137 42.95571325 -2.77853602 23.16379354 -5.5625 1.6875 C-2.5625 -0.3125 -2.5625 -0.3125 0 0 Z " fill="#144730" transform="translate(176.5625,218.3125)"/>
<path d="M0 0 C0.5259375 0.680625 0.5259375 0.680625 1.0625 1.375 C-0.2575 1.375 -1.5775 1.375 -2.9375 1.375 C-2.9375 0.715 -2.9375 0.055 -2.9375 -0.625 C-6.05535113 0.02144661 -6.05535113 0.02144661 -6.9375 2.375 C-6.2775 2.705 -5.6175 3.035 -4.9375 3.375 C-5.081875 4.014375 -5.22625 4.65375 -5.375 5.3125 C-6.10986798 9.31344788 -6.52331111 13.33004896 -6.9375 17.375 C-7.5975 17.375 -8.2575 17.375 -8.9375 17.375 C-9.2675 19.025 -9.5975 20.675 -9.9375 22.375 C-11.0625 18.625 -11.0625 18.625 -9.9375 16.375 C-9.86799459 14.83476004 -9.85297643 13.29165012 -9.875 11.75 C-9.88402344 10.93273437 -9.89304687 10.11546875 -9.90234375 9.2734375 C-9.91394531 8.64695313 -9.92554687 8.02046875 -9.9375 7.375 C-13.09063544 6.91356555 -15.1685935 6.83055689 -17.82421875 8.7109375 C-19.04665425 9.80267235 -20.24718033 10.91955383 -21.421875 12.0625 C-22.9375 13.375 -22.9375 13.375 -24.9375 13.375 C-25.246875 14.344375 -25.55625 15.31375 -25.875 16.3125 C-26.9375 19.375 -26.9375 19.375 -27.9375 20.375 C-28.03719841 22.12265452 -28.06718045 23.8745103 -28.0625 25.625 C-28.06507812 26.57890625 -28.06765625 27.5328125 -28.0703125 28.515625 C-27.94378725 31.23963928 -27.54755381 33.72175009 -26.9375 36.375 C-30.96848931 37.52671123 -33.23091391 37.37856005 -36.9375 35.375 C-40.36157693 30.23888461 -39.67326154 24.35224865 -38.9375 18.375 C-35.25955829 9.2914002 -26.07670624 2.29112297 -17.4375 -1.8125 C-11.20444398 -3.83824321 -5.37686831 -4.50963148 0 0 Z " fill="#144731" transform="translate(131.9375,227.625)"/>
<path d="M0 0 C2.53928355 3.80892532 2.54978622 6.60171023 2 11 C-0.35543721 21.49671349 -5.95818321 35.49803737 -14 43 C-14.33 41.35 -14.66 39.7 -15 38 C-15.99 38.495 -15.99 38.495 -17 39 C-17 37.35 -17 35.7 -17 34 C-16.34 34 -15.68 34 -15 34 C-14.67 33.01 -14.34 32.02 -14 31 C-13.34 31 -12.68 31 -12 31 C-11.9175 30.360625 -11.835 29.72125 -11.75 29.0625 C-10.86718982 25.45769176 -9.42069826 22.33564223 -7.83984375 18.98828125 C-6.87029715 17.05266586 -6.87029715 17.05266586 -7 15 C-7.39832031 15.92683594 -7.79664063 16.85367188 -8.20703125 17.80859375 C-8.73683594 19.00613281 -9.26664063 20.20367187 -9.8125 21.4375 C-10.59560547 23.22994141 -10.59560547 23.22994141 -11.39453125 25.05859375 C-13 28 -13 28 -16 29 C-16.93423645 25.98968256 -17.04449911 25.13349732 -16 22 C-17.65 22 -19.3 22 -21 22 C-21 23.98 -21 25.96 -21 28 C-21.99 27.67 -22.98 27.34 -24 27 C-22.12849037 19.84870304 -19.50213658 13.50594543 -16 7 C-15.34 7 -14.68 7 -14 7 C-13.34 5.68 -12.68 4.36 -12 3 C-11.34 3 -10.68 3 -10 3 C-10 2.34 -10 1.68 -10 1 C-6.26947743 -0.81196811 -3.9730095 -1.39592226 0 0 Z M-6 11 C-5 13 -5 13 -5 13 Z " fill="#10442D" transform="translate(258,224)"/>
<path d="M0 0 C0 0.99 0 1.98 0 3 C0.99 3 1.98 3 3 3 C3 3.66 3 4.32 3 5 C-1.455 5.495 -1.455 5.495 -6 6 C-4.70855022 8.99992729 -4.70855022 8.99992729 -3 12 C-2.01 12.33 -1.02 12.66 0 13 C0.33 11.68 0.66 10.36 1 9 C1.33 9.66 1.66 10.32 2 11 C4.02463255 11.65213292 4.02463255 11.65213292 6 12 C4.60587891 12.47179687 4.60587891 12.47179687 3.18359375 12.953125 C-4.58283015 15.48578965 -4.58283015 15.48578965 -11.75 19.3125 C-16.12822471 21.58580898 -20.14479409 21.72997851 -25 21 C-25.99 20.34 -26.98 19.68 -28 19 C-28.1875 15.375 -28.1875 15.375 -28 12 C-27.01 11.67 -26.02 11.34 -25 11 C-25 10.34 -25 9.68 -25 9 C-22.60496313 7.87327825 -20.2090129 6.74857442 -17.8125 5.625 C-17.13896484 5.30789063 -16.46542969 4.99078125 -15.77148438 4.6640625 C-5.17971858 -0.29598392 -5.17971858 -0.29598392 0 0 Z " fill="#1B4E38" transform="translate(196,313)"/>
<path d="M0 0 C2 1.75 2 1.75 4 4 C4 5.32 4 6.64 4 8 C4.33 8.66 4.66 9.32 5 10 C5.58550271 14.91822276 4.31393256 17.89126016 1.97265625 22.0703125 C0.90465129 23.97799177 0.90465129 23.97799177 0.55859375 26.1796875 C0.37425781 26.78039062 0.18992188 27.38109375 0 28 C-0.99 28.33 -1.98 28.66 -3 29 C-4.39712274 30.95597184 -5.73779907 32.95436401 -7 35 C-7.268125 34.4225 -7.53625 33.845 -7.8125 33.25 C-8.90156785 30.95943616 -8.90156785 30.95943616 -10.6171875 29.22265625 C-12.49956923 26.19702008 -12.00727951 24.63484549 -11.3125 21.1875 C-11.10238281 20.12917969 -10.89226562 19.07085937 -10.67578125 17.98046875 C-7.77406073 5.18270715 -7.77406073 5.18270715 -3 2 C-2.01 2 -1.02 2 0 2 C0 1.34 0 0.68 0 0 Z " fill="#0D422B" transform="translate(214,259)"/>
<path d="M0 0 C0.66 0.33 1.32 0.66 2 1 C1.34 2.32 0.68 3.64 0 5 C2.475 5.495 2.475 5.495 5 6 C4.360625 6.12375 3.72125 6.2475 3.0625 6.375 C2.381875 6.58125 1.70125 6.7875 1 7 C0.67 7.66 0.34 8.32 0 9 C-4.7692098 11.03975435 -9.2728613 11.40356903 -14.375 11.625 C-15.11105469 11.66367187 -15.84710938 11.70234375 -16.60546875 11.7421875 C-18.40327406 11.83557998 -20.20160108 11.9188371 -22 12 C-22 11.34 -22 10.68 -22 10 C-23.32 10.99 -24.64 11.98 -26 13 C-26.33 12.67 -26.66 12.34 -27 12 C-27.66 12.66 -28.32 13.32 -29 14 C-28.67 12.35 -28.34 10.7 -28 9 C-29.65 8.67 -31.3 8.34 -33 8 C-29.76038369 4.11246043 -26.86431693 3.14974764 -22 2 C-21.01 1.67 -20.02 1.34 -19 1 C-16.13812455 0.95461843 -13.29770072 0.95252779 -10.4375 1 C-5.06010049 1.34514624 -5.06010049 1.34514624 0 0 Z " fill="#1E4E39" transform="translate(273,297)"/>
<path d="M0 0 C-0.61875 0.268125 -1.2375 0.53625 -1.875 0.8125 C-4.2995233 1.95556848 -4.2995233 1.95556848 -6 5 C-6.99 5 -7.98 5 -9 5 C-9.0825 5.680625 -9.165 6.36125 -9.25 7.0625 C-10.22332528 10.8746907 -11.95807455 13.64070329 -14 17 C-14.66 16.67 -15.32 16.34 -16 16 C-15.01 13.69 -14.02 11.38 -13 9 C-15.31 9 -17.62 9 -20 9 C-20 9.66 -20 10.32 -20 11 C-20.66 11 -21.32 11 -22 11 C-22.66 12.65 -23.32 14.3 -24 16 C-24.66 16 -25.32 16 -26 16 C-26.33 14.35 -26.66 12.7 -27 11 C-28.65 11.33 -30.3 11.66 -32 12 C-32.103125 12.639375 -32.20625 13.27875 -32.3125 13.9375 C-32.539375 14.618125 -32.76625 15.29875 -33 16 C-33.99 16.33 -34.98 16.66 -36 17 C-35.938125 18.175625 -35.938125 18.175625 -35.875 19.375 C-36 22 -36 22 -38 24 C-38.68025637 25.99541868 -39.34490497 27.99617991 -40 30 C-40.556875 31.010625 -41.11375 32.02125 -41.6875 33.0625 C-43.14634751 36.32753967 -43.08078257 37.65939933 -42 41 C-42.99 41.66 -43.98 42.32 -45 43 C-45.5625 41.0625 -45.5625 41.0625 -46 39 C-45.505 38.505 -45.505 38.505 -45 38 C-45.66 37.34 -46.32 36.68 -47 36 C-46.34 36 -45.68 36 -45 36 C-44.71640625 35.12988281 -44.4328125 34.25976562 -44.140625 33.36328125 C-40.14524604 21.58238645 -35.04810733 9.01851633 -24.26171875 1.84375 C-21.0905087 0.66070791 -18.30842323 0.84888477 -14.9375 0.9375 C-9.73297288 1.06310768 -5.13593987 -0.13880919 0 0 Z " fill="#144730" transform="translate(401,234)"/>
<path d="M0 0 C0.66 0.33 1.32 0.66 2 1 C1.67 2.65 1.34 4.3 1 6 C1.99 5.01 2.98 4.02 4 3 C3 8 2 13 1 18 C4.465 17.505 4.465 17.505 8 17 C7.76785426 21.02385944 7.60783179 23.32065859 4.875 26.375 C1.48477508 28.29121409 -1.126471 28.78480394 -5 29 C-5.99 28.67 -6.98 28.34 -8 28 C-8 27.34 -8 26.68 -8 26 C-8.66 26 -9.32 26 -10 26 C-9.42415568 23.61435923 -8.77772405 21.33317216 -8 19 C-8.87914688 16.3430809 -8.87914688 16.3430809 -10 14 C-9.34 14 -8.68 14 -8 14 C-7.731875 13.360625 -7.46375 12.72125 -7.1875 12.0625 C-6 10 -6 10 -3 9 C-3.2475 8.443125 -3.495 7.88625 -3.75 7.3125 C-4 5 -4 5 -2.0625 2.25 C-1.381875 1.5075 -0.70125 0.765 0 0 Z " fill="#0A4029" transform="translate(349,254)"/>
<path d="M0 0 C2.80848017 1.40424009 2.92414585 3.10864198 4 6 C4.65213539 7.34050052 5.31379969 8.67661368 6 10 C6.99 8.02 7.98 6.04 9 4 C10.32 4 11.64 4 13 4 C13.33 2.68 13.66 1.36 14 0 C14 1.98 14 3.96 14 6 C14.66 6 15.32 6 16 6 C16 6.66 16 7.32 16 8 C16.55429688 7.57847656 17.10859375 7.15695312 17.6796875 6.72265625 C18.76636719 5.90087891 18.76636719 5.90087891 19.875 5.0625 C20.59429687 4.51722656 21.31359375 3.97195313 22.0546875 3.41015625 C24 2 24 2 26 1 C26.495 2.485 26.495 2.485 27 4 C26.360625 4.268125 25.72125 4.53625 25.0625 4.8125 C22.66868314 5.88667752 22.66868314 5.88667752 22 9 C23.32 9.33 24.64 9.66 26 10 C19.98417991 15.0131834 16.80164181 16.49534234 9 16 C8.01 15.34 7.02 14.68 6 14 C6 13.34 6 12.68 6 12 C5.34 12 4.68 12 4 12 C4 10.68 4 9.36 4 8 C3.51789063 8.433125 3.03578125 8.86625 2.5390625 9.3125 C1.90742188 9.869375 1.27578125 10.42625 0.625 11 C-0.31472656 11.8353125 -0.31472656 11.8353125 -1.2734375 12.6875 C-3 14 -3 14 -5 14 C-5.33 14.66 -5.66 15.32 -6 16 C-7 13 -7 13 -7 10 C-7.66 9.67 -8.32 9.34 -9 9 C-7.47005208 7.76302083 -5.94010417 6.52604167 -4.41015625 5.2890625 C-2.86733563 4.0333609 -2.86733563 4.0333609 -2 2 C-1.34 2 -0.68 2 0 2 C0 1.34 0 0.68 0 0 Z " fill="#194C37" transform="translate(201,283)"/>
<path d="M0 0 C0.6875 2.0625 0.6875 2.0625 1 4 C0.34 4 -0.32 4 -1 4 C-1.309375 4.969375 -1.61875 5.93875 -1.9375 6.9375 C-3 10 -3 10 -4 11 C-4.09969841 12.74765452 -4.12968045 14.4995103 -4.125 16.25 C-4.12757812 17.20390625 -4.13015625 18.1578125 -4.1328125 19.140625 C-4.00628725 21.86463928 -3.61005381 24.34675009 -3 27 C-7.03098931 28.15171123 -9.29341391 28.00356005 -13 26 C-16.11536748 21.32694878 -15.9769426 16.45640536 -15 11 C-13.40427512 8.92514102 -11.83692875 7.70633919 -9.6796875 6.2421875 C-7.40291552 4.5584352 -6.89872337 2.6212765 -6 0 C-3 -1 -3 -1 0 0 Z " fill="#0B412A" transform="translate(108,237)"/>
<path d="M0 0 C2 2 2 2 2.125 5 C2.08375 5.99 2.0425 6.98 2 8 C2 8.66 2 9.32 2 10 C4.2477975 7.94766315 5.0022242 6.99332739 6 4 C6.99 4 7.98 4 9 4 C9.33 3.34 9.66 2.68 10 2 C9.22436341 11.67606649 5.33575755 18.19490349 0 26 C-0.1546875 25.0409375 -0.1546875 25.0409375 -0.3125 24.0625 C-0.539375 23.381875 -0.76625 22.70125 -1 22 C-1.99 21.67 -2.98 21.34 -4 21 C-3.67 19.35 -3.34 17.7 -3 16 C-3.99 15.34 -4.98 14.68 -6 14 C-9.15430892 14.57920507 -9.15430892 14.57920507 -12 16 C-12.33 16.99 -12.66 17.98 -13 19 C-12.46148032 13.72250715 -11.22656164 9.74354436 -9 5 C-8.01 5 -7.02 5 -6 5 C-3.83333333 4.16666667 -3.83333333 4.16666667 -3 2 C-2.67 2.33 -2.34 2.66 -2 3 C-1.34 2.01 -0.68 1.02 0 0 Z M-1 13 C0 16 0 16 0 16 Z " fill="#1B4E37" transform="translate(220,247)"/>
<path d="M0 0 C2.53928355 3.80892532 2.54978622 6.60171023 2 11 C-0.35543721 21.49671349 -5.95818321 35.49803737 -14 43 C-14.33 41.35 -14.66 39.7 -15 38 C-15.99 38.495 -15.99 38.495 -17 39 C-17 37.35 -17 35.7 -17 34 C-16.34 34 -15.68 34 -15 34 C-14.67 33.01 -14.34 32.02 -14 31 C-13.34 31 -12.68 31 -12 31 C-11.88785156 30.30777344 -11.77570313 29.61554688 -11.66015625 28.90234375 C-10.65417934 24.47961685 -8.79979628 20.43180582 -7.05859375 16.25390625 C-5.98232253 12.94566297 -5.91548698 10.44514824 -6 7 C-4.625 5.125 -4.625 5.125 -3 4 C-2.34 4 -1.68 4 -1 4 C-1 3.01 -1 2.02 -1 1 C-1.78375 1.20625 -2.5675 1.4125 -3.375 1.625 C-4.24125 1.74875 -5.1075 1.8725 -6 2 C-6.66 1.34 -7.32 0.68 -8 0 C-4.67212881 -1.1092904 -3.3006216 -1.01557588 0 0 Z " fill="#4F7364" transform="translate(258,224)"/>
<path d="M0 0 C0 0.33 0 0.66 0 1 C-3.96 1 -7.92 1 -12 1 C-11.01 1.33 -10.02 1.66 -9 2 C-8.67 2.99 -8.34 3.98 -8 5 C-7.01 5 -6.02 5 -5 5 C-4.505 6.98 -4.505 6.98 -4 9 C-7.39499304 9.50581854 -10.79111482 10.00362244 -14.1875 10.5 C-15.62706055 10.71462891 -15.62706055 10.71462891 -17.09570312 10.93359375 C-18.02705078 11.06894531 -18.95839844 11.20429688 -19.91796875 11.34375 C-20.77156982 11.46943359 -21.6251709 11.59511719 -22.50463867 11.72460938 C-25.02469675 12.00272556 -27.46685782 12.047608 -30 12 C-29.67 11.01 -29.34 10.02 -29 9 C-29.39938767 6.90178785 -29.39938767 6.90178785 -30 5 C-30 4.67 -30 4.34 -30 4 C-30.66 4 -31.32 4 -32 4 C-32.33 4.66 -32.66 5.32 -33 6 C-33 5.34 -33 4.68 -33 4 C-34.65 4 -36.3 4 -38 4 C-38 3.67 -38 3.34 -38 3 C-33.21000398 1.91047222 -28.37943036 1.43019632 -23.5 0.9375 C-22.61666992 0.84807129 -21.73333984 0.75864258 -20.82324219 0.66650391 C-13.85365568 0.00049864 -7.00294381 -0.2300237 0 0 Z " fill="#265540" transform="translate(303,294)"/>
<path d="M0 0 C1.10868317 3.32604951 1.54177532 6.53058454 2 10 C3.32 10.33 4.64 10.66 6 11 C6 10.34 6 9.68 6 9 C11.35714286 4 11.35714286 4 15 4 C15.4505519 7.07877133 15.50042912 9.21010698 13.8046875 11.88671875 C10.45006297 15.90721096 7.74881742 18.64769255 2.37890625 19.3359375 C-5.29497074 19.4423713 -5.29497074 19.4423713 -9.1875 17 C-9.785625 16.34 -10.38375 15.68 -11 15 C-10.67 14.01 -10.34 13.02 -10 12 C-9.01 11.67 -8.02 11.34 -7 11 C-6.67 11.33 -6.34 11.66 -6 12 C-5.67 11.34 -5.34 10.68 -5 10 C-4.01 9.34 -3.02 8.68 -2 8 C-1.59270772 5.67843403 -1.25561323 3.3431213 -1 1 C-0.67 0.67 -0.34 0.34 0 0 Z " fill="#21533E" transform="translate(238,276)"/>
<path d="M0 0 C0 5.18781919 -2.36436494 9.30841766 -5.94140625 13.0078125 C-14.20687302 20.28385875 -14.20687302 20.28385875 -19.6875 20.125 C-20.49574219 20.10695313 -21.30398438 20.08890625 -22.13671875 20.0703125 C-22.75160156 20.04710937 -23.36648438 20.02390625 -24 20 C-24.33 19.01 -24.66 18.02 -25 17 C-25.66 17 -26.32 17 -27 17 C-25.25 13.125 -25.25 13.125 -23 12 C-22.2575 11.95875 -21.515 11.9175 -20.75 11.875 C-16.54121541 10.53584127 -14.66194193 7.38011981 -12 4 C-11.34 3.34 -10.68 2.68 -10 2 C-10 3.32 -10 4.64 -10 6 C-10.66 6 -11.32 6 -12 6 C-12 7.32 -12 8.64 -12 10 C-11.34 10 -10.68 10 -10 10 C-10 9.01 -10 8.02 -10 7 C-7 6 -7 6 -4 7 C-4 5.68 -4 4.36 -4 3 C-2 1.25 -2 1.25 0 0 Z " fill="#21513C" transform="translate(309,268)"/>
<path d="M0 0 C-0.44661564 6.252619 -1.97037905 10.55811482 -5 16 C-5.67224347 17.33053032 -6.34044117 18.66313637 -7 20 C-10.33333333 20 -13.66666667 20 -17 20 C-17 16 -17 16 -15.125 14.0625 C-14.42375 13.381875 -13.7225 12.70125 -13 12 C-11.22643803 8.54155416 -10.77896663 5.86808396 -11 2 C-9.68 2.33 -8.36 2.66 -7 3 C-7.33 2.67 -7.66 2.34 -8 2 C-4.77208445 -0.1519437 -3.71599191 -0.20086443 0 0 Z " fill="#10422D" transform="translate(402,235)"/>
<path d="M0 0 C0.72952881 -0.01289063 1.45905762 -0.02578125 2.21069336 -0.0390625 C5.97031134 -0.04604983 8.81198355 0.08706208 12 2.1875 C11.67 3.1775 11.34 4.1675 11 5.1875 C9.53240234 5.36925781 9.53240234 5.36925781 8.03515625 5.5546875 C0.9373169 6.45470693 -6.04288317 7.47873446 -13 9.1875 C-13.433125 8.5275 -13.86625 7.8675 -14.3125 7.1875 C-15.1478125 6.1975 -15.1478125 6.1975 -16 5.1875 C-16.99 5.1875 -17.98 5.1875 -19 5.1875 C-18.67 4.1975 -18.34 3.2075 -18 2.1875 C-18.99 2.5175 -19.98 2.8475 -21 3.1875 C-21 2.5275 -21 1.8675 -21 1.1875 C-14.00320198 0.43254684 -7.03374842 0.06048585 0 0 Z " fill="#0E412B" transform="translate(312,293.8125)"/>
<path d="M0 0 C1.76949095 -0.10815225 3.54087487 -0.18566083 5.3125 -0.25 C6.29863281 -0.29640625 7.28476563 -0.3428125 8.30078125 -0.390625 C11 0 11 0 12.828125 1.7421875 C14.76840726 5.48046466 14.64975984 8.89437462 14 13 C11.91996602 16.93720717 9.36686784 20.08204787 6 23 C5.34 23 4.68 23 4 23 C4 23.66 4 24.32 4 25 C3.01 25 2.02 25 1 25 C1 25.66 1 26.32 1 27 C-1.35438733 28.42944945 -2.48032433 29.08661261 -5.25 28.625 C-6.11625 28.315625 -6.11625 28.315625 -7 28 C-6.01 27.34 -5.02 26.68 -4 26 C-4 25.34 -4 24.68 -4 24 C-4.66 23.67 -5.32 23.34 -6 23 C-5.67 21.68 -5.34 20.36 -5 19 C-4.67 19.66 -4.34 20.32 -4 21 C1.61204957 16.94087373 4.0468872 13.6635613 6 7 C6.33 7 6.66 7 7 7 C7 9.31 7 11.62 7 14 C8.32 13.67 9.64 13.34 11 13 C11 12.34 11 11.68 11 11 C11.66 11 12.32 11 13 11 C12.67 8.36 12.34 5.72 12 3 C11.14148438 3.29197266 11.14148438 3.29197266 10.265625 3.58984375 C7.55358006 4.0808174 6.27004948 3.61252062 3.75 2.5625 C3.04359375 2.27503906 2.3371875 1.98757813 1.609375 1.69140625 C1.07828125 1.46324219 0.5471875 1.23507812 0 1 C0 0.67 0 0.34 0 0 Z " fill="#315F4B" transform="translate(190,257)"/>
<path d="M0 0 C2.4375 0.375 2.4375 0.375 5 1 C5.33 1.66 5.66 2.32 6 3 C10.1734802 4.35024359 13.73933592 3.7518819 18 3 C18.33 3.99 18.66 4.98 19 6 C18.34 6.66 17.68 7.32 17 8 C16.566875 8.99 16.566875 8.99 16.125 10 C14.68410114 12.56159798 13.79081865 13.09486963 11 14 C8.66796188 14.0777346 6.33160941 14.08967728 4 14 C4 13.34 4 12.68 4 12 C4.66 12 5.32 12 6 12 C5.67 10.68 5.34 9.36 5 8 C3.68 8 2.36 8 1 8 C1 7.01 1 6.02 1 5 C-0.65 5 -2.3 5 -4 5 C-3.34 4.01 -2.68 3.02 -2 2 C-1.34 2 -0.68 2 0 2 C0 1.34 0 0.68 0 0 Z " fill="#0E4A2C" transform="translate(178,289)"/>
<path d="M0 0 C0.66 0 1.32 0 2 0 C2.6875 3.3125 2.6875 3.3125 3 7 C1.6875 8.9375 1.6875 8.9375 0 10 C-0.66 10 -1.32 10 -2 10 C-2 11.32 -2 12.64 -2 14 C0.41619823 14.25030977 0.41619823 14.25030977 3 14 C3.66 13.01 4.32 12.02 5 11 C4.34 10.67 3.68 10.34 3 10 C4.32 9.67 5.64 9.34 7 9 C6.3098442 13.12542568 5.05112152 16.8451293 3.5625 20.75 C3.13066406 21.89984375 2.69882813 23.0496875 2.25390625 24.234375 C1 27 1 27 -1 28 C-1.45375 27.195625 -1.9075 26.39125 -2.375 25.5625 C-3.74725665 22.91143428 -3.74725665 22.91143428 -6 22 C-6 22.66 -6 23.32 -6 24 C-6.66 23.67 -7.32 23.34 -8 23 C-7.59007812 21.92621094 -7.18015625 20.85242188 -6.7578125 19.74609375 C-6.21339284 18.30995224 -5.66913039 16.87375113 -5.125 15.4375 C-4.85558594 14.73302734 -4.58617187 14.02855469 -4.30859375 13.30273438 C-2.64942413 8.91200501 -1.22654291 4.53106385 0 0 Z " fill="#0B4029" transform="translate(167,261)"/>
<path d="M0 0 C2.4375 0.6875 2.4375 0.6875 4.4375 1.6875 C4.4375 2.3475 4.4375 3.0075 4.4375 3.6875 C5.0975 3.6875 5.7575 3.6875 6.4375 3.6875 C6.7675 6.3275 7.0975 8.9675 7.4375 11.6875 C6.4475 12.3475 5.4575 13.0075 4.4375 13.6875 C4.1075 13.3575 3.7775 13.0275 3.4375 12.6875 C2.4475 12.3575 1.4575 12.0275 0.4375 11.6875 C-1.51466435 13.63966435 -2.41076645 15.21949953 -3.5625 17.6875 C-3.90145656 15.95942682 -4.23341525 14.22998026 -4.5625 12.5 C-4.748125 11.53707031 -4.93375 10.57414063 -5.125 9.58203125 C-5.53941408 6.84023808 -5.86741012 4.44598373 -5.5625 1.6875 C-2.5625 -0.3125 -2.5625 -0.3125 0 0 Z M3.4375 13.6875 C4.0975 14.3475 4.7575 15.0075 5.4375 15.6875 C3.625 16.75 3.625 16.75 1.4375 17.6875 C0.4475 17.3575 -0.5425 17.0275 -1.5625 16.6875 C0.0875 15.6975 1.7375 14.7075 3.4375 13.6875 Z " fill="#13452F" transform="translate(176.5625,218.3125)"/>
<path d="M0 0 C0.93050292 3.63742049 1.30458505 5.37698512 -0.375 8.8125 C-2 11 -2 11 -3 12 C-6.4375 12.1875 -6.4375 12.1875 -10 12 C-12 10 -12 10 -12.1953125 8.0546875 C-12.13020833 6.03645833 -12.06510417 4.01822917 -12 2 C-11.34 2 -10.68 2 -10 2 C-10 1.34 -10 0.68 -10 0 C-6.42355152 -1.2380014 -3.66305234 -0.74926071 0 0 Z " fill="#134831" transform="translate(364,220)"/>
<path d="M0 0 C1.67542976 0.28604898 3.34385343 0.61781233 5 1 C4.525625 1.4125 4.05125 1.825 3.5625 2.25 C1.81179859 4.21078558 1.2521204 5.39475592 1 8 C1.66 8.66 2.32 9.32 3 10 C0.36 10 -2.28 10 -5 10 C-5 9.34 -5 8.68 -5 8 C-6.32 8.99 -7.64 9.98 -9 11 C-9.33 10.67 -9.66 10.34 -10 10 C-10.66 10.66 -11.32 11.32 -12 12 C-11.67 10.35 -11.34 8.7 -11 7 C-12.65 6.67 -14.3 6.34 -16 6 C-14.6875 4.0625 -14.6875 4.0625 -12 2 C-9.10944362 1.51121787 -6.29076223 1.31149229 -3.36328125 1.17578125 C-1.04423178 1.26180146 -1.04423178 1.26180146 0 0 Z " fill="#0A4028" transform="translate(256,299)"/>
<path d="M0 0 C0.66 0 1.32 0 2 0 C1.67 2.97 1.34 5.94 1 9 C4.465 8.505 4.465 8.505 8 8 C7.76785426 12.02385944 7.60783179 14.32065859 4.875 17.375 C1.48477508 19.29121409 -1.126471 19.78480394 -5 20 C-5.99 19.67 -6.98 19.34 -8 19 C-8.33 18.01 -8.66 17.02 -9 16 C-7.68 16.33 -6.36 16.66 -5 17 C-4.01 14.69 -3.02 12.38 -2 10 C-1.34 10 -0.68 10 0 10 C0 9.34 0 8.68 0 8 C-0.99 8.33 -1.98 8.66 -3 9 C-1.125 2.25 -1.125 2.25 0 0 Z " fill="#13452F" transform="translate(349,263)"/>
<path d="M0 0 C0.5259375 0.680625 0.5259375 0.680625 1.0625 1.375 C-0.2575 1.375 -1.5775 1.375 -2.9375 1.375 C-2.9375 0.715 -2.9375 0.055 -2.9375 -0.625 C-6.05535113 0.02144661 -6.05535113 0.02144661 -6.9375 2.375 C-6.2775 2.705 -5.6175 3.035 -4.9375 3.375 C-5.081875 4.014375 -5.22625 4.65375 -5.375 5.3125 C-6.10986798 9.31344788 -6.52331111 13.33004896 -6.9375 17.375 C-7.5975 17.375 -8.2575 17.375 -8.9375 17.375 C-9.2675 19.025 -9.5975 20.675 -9.9375 22.375 C-11.0625 18.625 -11.0625 18.625 -9.9375 16.375 C-9.86799459 14.83476004 -9.85297643 13.29165012 -9.875 11.75 C-9.88402344 10.93273437 -9.89304687 10.11546875 -9.90234375 9.2734375 C-9.91394531 8.64695313 -9.92554687 8.02046875 -9.9375 7.375 C-11.2575 6.715 -12.5775 6.055 -13.9375 5.375 C-12.2875 5.375 -10.6375 5.375 -8.9375 5.375 C-8.9375 4.715 -8.9375 4.055 -8.9375 3.375 C-10.5875 3.705 -12.2375 4.035 -13.9375 4.375 C-14.2675 3.385 -14.5975 2.395 -14.9375 1.375 C-15.9275 1.375 -16.9175 1.375 -17.9375 1.375 C-18.5975 1.375 -19.2575 1.375 -19.9375 1.375 C-19.9375 0.715 -19.9375 0.055 -19.9375 -0.625 C-13.1476681 -3.62051407 -6.21466752 -5.21230179 0 0 Z " fill="#094128" transform="translate(131.9375,227.625)"/>
<path d="M0 0 C1.65 0 3.3 0 5 0 C5 0.66 5 1.32 5 2 C5.66 2 6.32 2 7 2 C7.62148338 10.07928389 7.62148338 10.07928389 5.3125 13.5 C2.81876259 15.1175594 0.93785297 15.67357189 -2 16 C-2.80967438 13.08517222 -3.21845993 11.53886783 -2.0625 8.6875 C-1.711875 8.130625 -1.36125 7.57375 -1 7 C-1.66 6.34 -2.32 5.68 -3 5 C-2.505 4.360625 -2.01 3.72125 -1.5 3.0625 C0.09802862 1.29025661 0.09802862 1.29025661 0 0 Z " fill="#285A41" transform="translate(335,240)"/>
<path d="M0 0 C0.99 0 1.98 0 3 0 C3 1.32 3 2.64 3 4 C3.99 3.67 4.98 3.34 6 3 C5.60592938 8.81254171 5.03695105 11.5960534 1 16 C0.29114106 17.31138904 -0.39456452 18.63777017 -1 20 C-2.65 19.67 -4.3 19.34 -6 19 C-6 17.68 -6 16.36 -6 15 C-5.34 14.38125 -4.68 13.7625 -4 13.125 C-1.68483062 11.1290821 -1.68483062 11.1290821 -1.875 8.0625 C-1.91625 7.051875 -1.9575 6.04125 -2 5 C-1 2.125 -1 2.125 0 0 Z " fill="#144832" transform="translate(171,256)"/>
<path d="M0 0 C2.24027294 2.88035092 4.16172132 5.84866512 6 9 C5.01 9.66 4.02 10.32 3 11 C2.67 10.34 2.34 9.68 2 9 C2.15339844 9.65355469 2.30679687 10.30710938 2.46484375 10.98046875 C3.13379594 14.75492159 3.35407297 18.48905996 3.5625 22.3125 C3.60568359 23.05306641 3.64886719 23.79363281 3.69335938 24.55664062 C3.79870432 26.37091464 3.89978316 28.1854355 4 30 C3.34 30 2.68 30 2 30 C1.93941406 29.22914063 1.87882812 28.45828125 1.81640625 27.6640625 C1.73261719 26.66117187 1.64882813 25.65828125 1.5625 24.625 C1.48128906 23.62726563 1.40007812 22.62953125 1.31640625 21.6015625 C1.15034374 19.02072387 1.15034374 19.02072387 0 17 C-0.12117188 17.96421875 -0.24234375 18.9284375 -0.3671875 19.921875 C-0.53476562 21.18515625 -0.70234375 22.4484375 -0.875 23.75 C-1.11863281 25.62945312 -1.11863281 25.62945312 -1.3671875 27.546875 C-1.9058355 30.48616408 -2.48008841 32.47107147 -4 35 C-4.93423645 31.98968256 -5.04449911 31.13349732 -4 28 C-3.85426942 26.52034074 -3.75336732 25.03596157 -3.68359375 23.55078125 C-3.64169922 22.70322266 -3.59980469 21.85566406 -3.55664062 20.98242188 C-3.51732422 20.10134766 -3.47800781 19.22027344 -3.4375 18.3125 C-3.39431641 17.41982422 -3.35113281 16.52714844 -3.30664062 15.60742188 C-3.20064647 13.40509892 -3.09857949 11.20266527 -3 9 C-2.34 9 -1.68 9 -1 9 C-0.67 6.03 -0.34 3.06 0 0 Z M-2 11 C-1 13 -1 13 -1 13 Z " fill="#D0A68C" transform="translate(279,245)"/>
<path d="M0 0 C0.969375 0.185625 1.93875 0.37125 2.9375 0.5625 C3.618125 0.706875 4.29875 0.85125 5 1 C5.33 3.64 5.66 6.28 6 9 C5.34 9 4.68 9 4 9 C4 9.66 4 10.32 4 11 C2.35 11.66 0.7 12.32 -1 13 C-0.67 10.36 -0.34 7.72 0 5 C-4.455 5.495 -4.455 5.495 -9 6 C-10 2 -10 2 -9 0.1875 C-5.87330518 -1.66897505 -3.46700482 -0.71731134 0 0 Z " fill="#0C432B" transform="translate(197,259)"/>
<path d="M0 0 C-0.53031138 4.5076467 -2.25221116 7.41954788 -5 11 C-5.66 11 -6.32 11 -7 11 C-7 11.66 -7 12.32 -7 13 C-7.66 13 -8.32 13 -9 13 C-9 13.66 -9 14.32 -9 15 C-9.99 15 -10.98 15 -12 15 C-12.33 14.01 -12.66 13.02 -13 12 C-14.32 12 -15.64 12 -17 12 C-17 10.35 -17 8.7 -17 7 C-16.67 7.99 -16.34 8.98 -16 10 C-15.01 10 -14.02 10 -13 10 C-13 9.34 -13 8.68 -13 8 C-10.91796875 6.0546875 -10.91796875 6.0546875 -8.1875 3.875 C-7.29417969 3.15054688 -6.40085937 2.42609375 -5.48046875 1.6796875 C-3 0 -3 0 0 0 Z " fill="#D2A483" transform="translate(291,176)"/>
<path d="M0 0 C0.4505519 3.07877133 0.50042912 5.21010698 -1.1953125 7.88671875 C-3.82871873 11.04283627 -6.08151343 13.53766624 -10 15 C-12.796875 15.1953125 -12.796875 15.1953125 -15.75 15.125 C-16.73484375 15.10695313 -17.7196875 15.08890625 -18.734375 15.0703125 C-19.85585937 15.03550781 -19.85585937 15.03550781 -21 15 C-21 14.67 -21 14.34 -21 14 C-19.01432292 13.77213542 -17.02864583 13.54427083 -15.04296875 13.31640625 C-12.80603607 13.02829265 -12.80603607 13.02829265 -10 12 C-10 11.01 -10 10.02 -10 9 C-10.99 8.34 -11.98 7.68 -13 7 C-11.68 7 -10.36 7 -9 7 C-9 6.34 -9 5.68 -9 5 C-3.64285714 0 -3.64285714 0 0 0 Z " fill="#33604A" transform="translate(253,280)"/>
<path d="M0 0 C3.52269485 -0.4025937 4.79940808 -0.13372795 7.8125 1.875 C8.534375 2.57625 9.25625 3.2775 10 4 C10 4.66 10 5.32 10 6 C11.134375 6.28875 12.26875 6.5775 13.4375 6.875 C14.613125 7.24625 15.78875 7.6175 17 8 C17.33 8.66 17.66 9.32 18 10 C15.03 9.505 15.03 9.505 12 9 C12 10.98 12 12.96 12 15 C10.68 15.33 9.36 15.66 8 16 C7.90847656 15.27167969 7.81695312 14.54335937 7.72265625 13.79296875 C6.88105948 10.54031094 5.58768252 8.87100001 3.4375 6.3125 C0 2.1971831 0 2.1971831 0 0 Z " fill="#D4AB8C" transform="translate(250,177)"/>
<path d="M0 0 C2.97 0 5.94 0 9 0 C9.66 1.32 10.32 2.64 11 4 C11.33 2.68 11.66 1.36 12 0 C13.20254524 1.23553276 14.38666232 2.48902339 15.5625 3.75 C16.55443359 4.79414063 16.55443359 4.79414063 17.56640625 5.859375 C19 8 19 8 18.71484375 10.265625 C18.47894531 10.83796875 18.24304688 11.4103125 18 12 C14.01328937 10.63312778 11.11505367 8.84804907 8 6 C8 5.34 8 4.68 8 4 C6.35 3.67 4.7 3.34 3 3 C2.34 4.65 1.68 6.3 1 8 C0.67 8 0.34 8 0 8 C0 5.36 0 2.72 0 0 Z " fill="#D4AA8C" transform="translate(273,205)"/>
<path d="M0 0 C0.99 0.33 1.98 0.66 3 1 C3 3.31 3 5.62 3 8 C2.34 8 1.68 8 1 8 C0.855625 8.61875 0.71125 9.2375 0.5625 9.875 C0 12 0 12 -1 14 C-1.66 14 -2.32 14 -3 14 C-3 14.66 -3 15.32 -3 16 C-3.66 16 -4.32 16 -5 16 C-5.33 15.01 -5.66 14.02 -6 13 C-8.01508358 12.26676204 -8.01508358 12.26676204 -10 12 C-9.01 11.67 -8.02 11.34 -7 11 C-6.29325371 9.68747118 -5.63815344 8.34721283 -5 7 C-3.3897024 4.62532063 -1.70055366 2.31067596 0 0 Z " fill="#2A5443" transform="translate(404,257)"/>
<path d="M0 0 C2.79703452 1.39851726 2.86808055 3.13690964 4 6 C4.8353125 7.0209375 4.8353125 7.0209375 5.6875 8.0625 C7 10 7 10 6.6875 12.25 C6.460625 12.8275 6.23375 13.405 6 14 C6 13.34 6 12.68 6 12 C5.34 12 4.68 12 4 12 C4 10.68 4 9.36 4 8 C3.51789063 8.433125 3.03578125 8.86625 2.5390625 9.3125 C1.90742188 9.869375 1.27578125 10.42625 0.625 11 C-0.31472656 11.8353125 -0.31472656 11.8353125 -1.2734375 12.6875 C-3 14 -3 14 -5 14 C-5.33 14.66 -5.66 15.32 -6 16 C-7 13 -7 13 -7 10 C-7.66 9.67 -8.32 9.34 -9 9 C-7.47005208 7.76302083 -5.94010417 6.52604167 -4.41015625 5.2890625 C-2.86733563 4.0333609 -2.86733563 4.0333609 -2 2 C-1.34 2 -0.68 2 0 2 C0 1.34 0 0.68 0 0 Z " fill="#285846" transform="translate(201,283)"/>
<path d="M0 0 C2.64 0.33 5.28 0.66 8 1 C8 1.66 8 2.32 8 3 C8.66 3 9.32 3 10 3 C12.1519437 6.22791555 12.20086443 7.28400809 12 11 C11.01 11 10.02 11 9 11 C8.67 10.01 8.34 9.02 8 8 C7.0925 8.33 6.185 8.66 5.25 9 C2 10 2 10 -2 10 C-2.99 10.495 -2.99 10.495 -4 11 C-3.34 9.35 -2.68 7.7 -2 6 C-1.01 6.33 -0.02 6.66 1 7 C0.67 4.69 0.34 2.38 0 0 Z " fill="#265540" transform="translate(298,243)"/>
<path d="M0 0 C4.95 0.33 9.9 0.66 15 1 C15 1.99 15 2.98 15 4 C2.51480638 7.44419134 2.51480638 7.44419134 -4 7 C-4 7.99 -4 8.98 -4 10 C-3.34 10 -2.68 10 -2 10 C-2.33 10.66 -2.66 11.32 -3 12 C-3.66 11.67 -4.32 11.34 -5 11 C-5 9.35 -5 7.7 -5 6 C-3.68 5.67 -2.36 5.34 -1 5 C-0.67 3.35 -0.34 1.7 0 0 Z " fill="#D1A488" transform="translate(286,193)"/>
<path d="M0 0 C2.6875 0.875 2.6875 0.875 5 2 C4.67 3.65 4.34 5.3 4 7 C5.32 7 6.64 7 8 7 C7.67 8.32 7.34 9.64 7 11 C0.375 11.25 0.375 11.25 -3 9 C-3.375 5.5 -3.375 5.5 -3 2 C-2.01 1.34 -1.02 0.68 0 0 Z " fill="#0A4129" transform="translate(171,323)"/>
<path d="M0 0 C3.875 1.875 3.875 1.875 5 3 C5.04080783 4.99958364 5.04254356 7.00045254 5 9 C4.01 9 3.02 9 2 9 C2 9.66 2 10.32 2 11 C1.34 11 0.68 11 0 11 C-0.33 11.99 -0.66 12.98 -1 14 C-2.32 14.33 -3.64 14.66 -5 15 C-4.01 10.71 -3.02 6.42 -2 2 C-1.34 2 -0.68 2 0 2 C0 1.34 0 0.68 0 0 Z " fill="#0A4129" transform="translate(161,283)"/>
<path d="M0 0 C1.328125 1.75390625 1.328125 1.75390625 1.21875 4.1640625 C1.00734375 5.03933594 0.7959375 5.91460937 0.578125 6.81640625 C0.37703125 7.69425781 0.1759375 8.57210937 -0.03125 9.4765625 C-0.671875 11.75390625 -0.671875 11.75390625 -1.671875 13.75390625 C-2.331875 13.75390625 -2.991875 13.75390625 -3.671875 13.75390625 C-5.296875 11.25390625 -5.296875 11.25390625 -6.671875 8.75390625 C-5.021875 9.08390625 -3.371875 9.41390625 -1.671875 9.75390625 C-1.671875 8.43390625 -1.671875 7.11390625 -1.671875 5.75390625 C-4.311875 5.09390625 -6.951875 4.43390625 -9.671875 3.75390625 C-8.921875 1.31640625 -8.921875 1.31640625 -7.671875 -1.24609375 C-4.31068411 -2.71661477 -2.8787729 -2.14562747 0 0 Z " fill="#13412D" transform="translate(157.671875,245.24609375)"/>
<path d="M0 0 C0.33 0.99 0.66 1.98 1 3 C2.65 3.33 4.3 3.66 6 4 C4.74194623 8.50802601 3.09592835 11.4912812 0 15 C-0.33 13.35 -0.66 11.7 -1 10 C-2.32 10.33 -3.64 10.66 -5 11 C-3.55049545 7.2089881 -1.84827434 3.6125362 0 0 Z " fill="#21513C" transform="translate(128,287)"/>
<path d="M0 0 C0.66 0.33 1.32 0.66 2 1 C1.34 1.66 0.68 2.32 0 3 C0 3.99 0 4.98 0 6 C1.65 6 3.3 6 5 6 C4.01 6.495 4.01 6.495 3 7 C3 7.66 3 8.32 3 9 C2.34 9 1.68 9 1 9 C0.67 9.99 0.34 10.98 0 12 C-0.53625 11.62875 -1.0725 11.2575 -1.625 10.875 C-4.94612897 9.65142617 -6.81090417 10.69536989 -10 12 C-8.69386058 8.08158173 -7.16870152 5.67359191 -4 3 C-3.34 3 -2.68 3 -2 3 C-2 2.34 -2 1.68 -2 1 C-1.34 0.67 -0.68 0.34 0 0 Z " fill="#356354" transform="translate(188,258)"/>
<path d="M0 0 C1 3 1 3 -0.3125 5.6875 C-0.869375 6.450625 -1.42625 7.21375 -2 8 C-2.66 8 -3.32 8 -4 8 C-3.95875 8.78375 -3.9175 9.5675 -3.875 10.375 C-4 13 -4 13 -6 15 C-6.68025637 16.99541868 -7.34490497 18.99617991 -8 21 C-8.556875 22.010625 -9.11375 23.02125 -9.6875 24.0625 C-11.14634751 27.32753967 -11.08078257 28.65939933 -10 32 C-10.99 32.66 -11.98 33.32 -13 34 C-13.5625 32.0625 -13.5625 32.0625 -14 30 C-13.67 29.67 -13.34 29.34 -13 29 C-13.66 28.34 -14.32 27.68 -15 27 C-14.34 27 -13.68 27 -13 27 C-12.71640625 26.12988281 -12.4328125 25.25976562 -12.140625 24.36328125 C-9.13472784 15.50000231 -5.55591649 7.56062862 0 0 Z " fill="#446A59" transform="translate(369,243)"/>
<path d="M0 0 C0.33 0.99 0.66 1.98 1 3 C2.65 3 4.3 3 6 3 C6 3.99 6 4.98 6 6 C7.32 6 8.64 6 10 6 C10.33 7.32 10.66 8.64 11 10 C10.34 10 9.68 10 9 10 C9 10.66 9 11.32 9 12 C9.99 12.33 10.98 12.66 12 13 C5.62465753 12.50958904 5.62465753 12.50958904 2.625 10.0625 C-0.12351149 6.57400465 -0.09548932 4.39250884 0 0 Z " fill="#2C5844" transform="translate(173,291)"/>
<path d="M0 0 C1.42244805 3.79319481 0.544228 6.24861448 -0.75 10 C-1.09546875 11.03125 -1.4409375 12.0625 -1.796875 13.125 C-2.92221132 15.81411535 -4.13922623 17.77562676 -6 20 C-6 18.35 -6 16.7 -6 15 C-6.99 15 -7.98 15 -9 15 C-9.33 16.32 -9.66 17.64 -10 19 C-11 16 -11 16 -9.9375 12.9375 C-7.61207717 9.41185893 -6.04154489 8.89812109 -2 8 C-2 7.34 -2 6.68 -2 6 C-2.66 6 -3.32 6 -4 6 C-4 5.34 -4 4.68 -4 4 C-3.34 4 -2.68 4 -2 4 C-2 3.34 -2 2.68 -2 2 C-1.34 2 -0.68 2 0 2 C0 1.34 0 0.68 0 0 Z " fill="#38604F" transform="translate(235,236)"/>
<path d="M0 0 C3.465 1.485 3.465 1.485 7 3 C6.29875 3.556875 5.5975 4.11375 4.875 4.6875 C3.3827591 5.88778073 1.89411934 7.09559046 0.47265625 8.37890625 C-3.58173077 12 -3.58173077 12 -8 12 C-6.49087042 7.01987239 -3.44338151 3.75740058 0 0 Z " fill="#CFA786" transform="translate(258,203)"/>
<path d="M0 0 C3.30901116 1.0269345 4.0219638 2.03922107 5.75 5.125 C7.31997664 9.15602111 7.22556434 12.71427756 7 17 C7.66 17.33 8.32 17.66 9 18 C8.34 18.99 7.68 19.98 7 21 C5.19588033 18.24075815 4.9872755 17.11027897 5.375 13.75 C5.58125 12.8425 5.7875 11.935 6 11 C5.01 11.495 5.01 11.495 4 12 C3.53348793 14.12576782 3.53348793 14.12576782 3.375 16.5625 C3.30023438 17.38878906 3.22546875 18.21507812 3.1484375 19.06640625 C3.09945313 19.70449219 3.05046875 20.34257812 3 21 C2.67 21 2.34 21 2 21 C1.93941406 19.92878906 1.87882812 18.85757812 1.81640625 17.75390625 C1.73201463 16.35675609 1.64736594 14.95962143 1.5625 13.5625 C1.50352539 12.50192383 1.50352539 12.50192383 1.44335938 11.41992188 C1.52375562 7.91309581 1.52375562 7.91309581 0 5 C-0.04063832 3.33382885 -0.042721 1.66611905 0 0 Z " fill="#C2946D" transform="translate(280,253)"/>
<path d="M0 0 C2.0625 0.4375 2.0625 0.4375 4 1 C4 2.98 4 4.96 4 7 C4.66 7 5.32 7 6 7 C6.33 7.99 6.66 8.98 7 10 C6.34 10 5.68 10 5 10 C5 9.34 5 8.68 5 8 C4.34773438 8.2165625 3.69546875 8.433125 3.0234375 8.65625 C-1.77521132 10.18502308 -5.89921898 11.40269324 -11 11 C-11.33 10.34 -11.66 9.68 -12 9 C-8.7 9 -5.4 9 -2 9 C-1.855625 7.700625 -1.71125 6.40125 -1.5625 5.0625 C-1.125 1.125 -1.125 1.125 0 0 Z " fill="#C9A182" transform="translate(278,278)"/>
<path d="M0 0 C2.125 0.375 2.125 0.375 4 1 C4 1.99 4 2.98 4 4 C3.1028125 4.309375 3.1028125 4.309375 2.1875 4.625 C-0.81018767 6.50926082 -1.61361776 8.81132084 -3 12 C-3.66 11.34 -4.32 10.68 -5 10 C-5.99 10 -6.98 10 -8 10 C-8.33 9.34 -8.66 8.68 -9 8 C-7.8125 5.4375 -7.8125 5.4375 -6 3 C-3.9375 2.3125 -3.9375 2.3125 -2 2 C-1.34 1.34 -0.68 0.68 0 0 Z " fill="#094026" transform="translate(122,267)"/>
<path d="M0 0 C0.66 0.66 1.32 1.32 2 2 C1.86589799 7.63228453 -0.91282878 11.51164037 -4 16 C-4.33 14.68 -4.66 13.36 -5 12 C-5.99 12 -6.98 12 -8 12 C-8 10.35 -8 8.7 -8 7 C-7.34 7 -6.68 7 -6 7 C-5.67 6.01 -5.34 5.02 -5 4 C-3.68352881 3.30062468 -2.34977849 2.63270867 -1 2 C-0.67 1.34 -0.34 0.68 0 0 Z " fill="#356150" transform="translate(249,251)"/>
<path d="M0 0 C-0.928125 0.4021875 -0.928125 0.4021875 -1.875 0.8125 C-4.2995233 1.95556848 -4.2995233 1.95556848 -6 5 C-6.99 5 -7.98 5 -9 5 C-9.0825 5.680625 -9.165 6.36125 -9.25 7.0625 C-10.22332528 10.8746907 -11.95807455 13.64070329 -14 17 C-14.66 16.67 -15.32 16.34 -16 16 C-15.01 13.69 -14.02 11.38 -13 9 C-13.66 9 -14.32 9 -15 9 C-15.33 7.68 -15.66 6.36 -16 5 C-14.730447 4.35165346 -13.45930294 3.70642185 -12.1875 3.0625 C-11.47980469 2.70285156 -10.77210938 2.34320313 -10.04296875 1.97265625 C-6.53756763 0.30373679 -3.83931717 -0.10376533 0 0 Z " fill="#2A5945" transform="translate(401,234)"/>
<path d="M0 0 C1.32 0.33 2.64 0.66 4 1 C3.67 2.98 3.34 4.96 3 7 C4.32 6.67 5.64 6.34 7 6 C7 9.63 7 13.26 7 17 C5.68 17 4.36 17 3 17 C1.30802581 15.30802581 1.67342066 13.06640459 1.5 10.75 C1.22292944 7.08871046 0.78577537 3.58837417 0 0 Z " fill="#CEA484" transform="translate(266,206)"/>
<path d="M0 0 C2.67927341 4.01891012 2.15601248 6.24161923 2 11 C0.35 11.66 -1.3 12.32 -3 13 C-3.33 11.68 -3.66 10.36 -4 9 C-4.66 9 -5.32 9 -6 9 C-6 7 -6 7 -4.625 5.375 C-3 4 -3 4 -1 4 C-1 3.01 -1 2.02 -1 1 C-1.78375 1.20625 -2.5675 1.4125 -3.375 1.625 C-4.24125 1.74875 -5.1075 1.8725 -6 2 C-6.66 1.34 -7.32 0.68 -8 0 C-4.67212881 -1.1092904 -3.3006216 -1.01557588 0 0 Z " fill="#3D6454" transform="translate(258,224)"/>
<path d="M0 0 C2.05078125 0.03255208 4.1015625 0.06510417 6.15234375 0.09765625 C6.48234375 1.74765625 6.81234375 3.39765625 7.15234375 5.09765625 C3.50816635 7.52710785 1.43993103 7.259452 -2.84765625 7.09765625 C-2.84765625 6.43765625 -2.84765625 5.77765625 -2.84765625 5.09765625 C-3.50765625 5.09765625 -4.16765625 5.09765625 -4.84765625 5.09765625 C-2.44354091 0.12915121 -2.44354091 0.12915121 0 0 Z " fill="#0B3F28" transform="translate(286.84765625,279.90234375)"/>
<path d="M0 0 C0 1.98 0 3.96 0 6 C-1.98 6.66 -3.96 7.32 -6 8 C-6 9.65 -6 11.3 -6 13 C-7.65 13 -9.3 13 -11 13 C-9.375 6.25 -9.375 6.25 -6 4 C-5.67 3.01 -5.34 2.02 -5 1 C-2 0 -2 0 0 0 Z " fill="#094127" transform="translate(374,245)"/>
<path d="M0 0 C0.33 0.66 0.66 1.32 1 2 C1.99 2 2.98 2 4 2 C4 2.99 4 3.98 4 5 C3.34 5 2.68 5 2 5 C1.67 6.98 1.34 8.96 1 11 C-0.32 11 -1.64 11 -3 11 C-3 12.98 -3 14.96 -3 17 C-3.99 16.67 -4.98 16.34 -6 16 C-4.43551329 10.3856009 -2.83604813 5.13189662 0 0 Z " fill="#2A5541" transform="translate(240,235)"/>
<path d="M0 0 C0.73863281 0.24878906 1.47726563 0.49757812 2.23828125 0.75390625 C2.23828125 1.41390625 2.23828125 2.07390625 2.23828125 2.75390625 C1.24828125 2.75390625 0.25828125 2.75390625 -0.76171875 2.75390625 C-1.09171875 3.41390625 -1.42171875 4.07390625 -1.76171875 4.75390625 C-2.42171875 4.75390625 -3.08171875 4.75390625 -3.76171875 4.75390625 C-4.02984375 5.51703125 -4.29796875 6.28015625 -4.57421875 7.06640625 C-6.42022248 11.24420416 -8.64547563 12.90869382 -12.76171875 14.75390625 C-11.58991308 9.04135361 -6.6449131 -0.59212097 0 0 Z " fill="#3F6653" transform="translate(105.76171875,233.24609375)"/>
<path d="M0 0 C3.4375 0.75 3.4375 0.75 5.4375 2.75 C5.4375 3.74 5.4375 4.73 5.4375 5.75 C2.4375 4.75 2.4375 4.75 0.4375 2.75 C-3.40728875 4.20836815 -4.7447915 6.11458299 -6.5625 9.75 C-7.25829454 11.94130534 -7.25829454 11.94130534 -7.5625 13.75 C-8.2225 13.75 -8.8825 13.75 -9.5625 13.75 C-9.13959963 11.78846209 -8.69868382 9.83080125 -8.25 7.875 C-8.00636719 6.78445312 -7.76273438 5.69390625 -7.51171875 4.5703125 C-6.05158595 0.23197554 -4.46847208 -0.31357699 0 0 Z " fill="#3A5F4F" transform="translate(153.5625,241.25)"/>
<path d="M0 0 C1.10661449 3.87315071 1.54098166 6.86393852 -0.25 10.625 C-2.08976499 13.12182391 -3.24659067 13.75652482 -6 15 C-6.99 16.485 -6.99 16.485 -8 18 C-9.32 17.34 -10.64 16.68 -12 16 C-10.948125 15.21625 -9.89625 14.4325 -8.8125 13.625 C-4.36155379 9.86159832 -2.26453639 5.2804397 0 0 Z " fill="#355F4C" transform="translate(341,258)"/>
<path d="M0 0 C0.99 0 1.98 0 3 0 C3.33 5.61 3.66 11.22 4 17 C3.34 16.67 2.68 16.34 2 16 C1.39892255 12.68273295 1.25566515 9.36625785 1 6 C0.34 9.63 -0.32 13.26 -1 17 C-1.33 17 -1.66 17 -2 17 C-2.22084624 10.90218999 -2.01167675 5.78357065 0 0 Z " fill="#CDAB90" transform="translate(270,166)"/>
<path d="M0 0 C0.625 1.875 0.625 1.875 1 4 C0.34 4.66 -0.32 5.32 -1 6 C-1.16681109 9.08347826 -1.16681109 9.08347826 -1 12 C-1.99 12.495 -1.99 12.495 -3 13 C-3.31241371 15.54941373 -3.51303421 18.00361513 -3.625 20.5625 C-3.66367187 21.27341797 -3.70234375 21.98433594 -3.7421875 22.71679688 C-3.83671783 24.47742425 -3.91945817 26.23867728 -4 28 C-4.33 28 -4.66 28 -5 28 C-5.6466598 19.98603754 -6.16677223 12.04212755 -6 4 C-5.67 4 -5.34 4 -5 4 C-4.67 5.65 -4.34 7.3 -4 9 C-3.79503906 8.43410156 -3.59007812 7.86820312 -3.37890625 7.28515625 C-3.10949219 6.55167969 -2.84007812 5.81820313 -2.5625 5.0625 C-2.29566406 4.33160156 -2.02882813 3.60070312 -1.75390625 2.84765625 C-1 1 -1 1 0 0 Z " fill="#547968" transform="translate(316,251)"/>
<path d="M0 0 C2.375 0.3125 2.375 0.3125 5 1 C7 4 7 4 7 7 C5.02 7.33 3.04 7.66 1 8 C1 7.01 1 6.02 1 5 C-0.65 5 -2.3 5 -4 5 C-3.34 4.01 -2.68 3.02 -2 2 C-1.34 2 -0.68 2 0 2 C0 1.34 0 0.68 0 0 Z " fill="#094028" transform="translate(178,289)"/>
<path d="M0 0 C2.0625 0.4375 2.0625 0.4375 4 1 C4.33 3.64 4.66 6.28 5 9 C4.01 8.67 3.02 8.34 2 8 C2 6.35 2 4.7 2 3 C1.67 3 1.34 3 1 3 C0.67 5.31 0.34 7.62 0 10 C-0.66 10 -1.32 10 -2 10 C-2.33 12.31 -2.66 14.62 -3 17 C-3.99 17 -4.98 17 -6 17 C-4.94124926 13.59687262 -3.99097846 10.98646769 -2 8 C-1.63858045 5.67085177 -1.30300475 3.33746522 -1 1 C-0.67 0.67 -0.34 0.34 0 0 Z " fill="#D7B59F" transform="translate(269,226)"/>
<path d="M0 0 C3.28560634 2.49706082 3.95805055 3.73216888 4.609375 7.890625 C4.67539233 9.34300623 4.7217497 10.79639364 4.75 12.25 C4.77964844 12.99507813 4.80929687 13.74015625 4.83984375 14.5078125 C4.9102343 16.33796672 4.95741832 18.16898769 5 20 C4.34 20 3.68 20 3 20 C2.93941406 19.22914063 2.87882812 18.45828125 2.81640625 17.6640625 C2.73261719 16.66117187 2.64882813 15.65828125 2.5625 14.625 C2.44068359 13.12839844 2.44068359 13.12839844 2.31640625 11.6015625 C2.15034374 9.02072387 2.15034374 9.02072387 1 7 C0.67 10.3 0.34 13.6 0 17 C-0.33 17 -0.66 17 -1 17 C-1.02699725 14.72923158 -1.04639453 12.45837179 -1.0625 10.1875 C-1.07990234 8.29064453 -1.07990234 8.29064453 -1.09765625 6.35546875 C-1 3 -1 3 0 0 Z " fill="#DFBCA0" transform="translate(278,255)"/>
<path d="M0 0 C2.375 -0.125 2.375 -0.125 5 0 C7 2 7 2 7 5 C7.66 5 8.32 5 9 5 C9.33 6.32 9.66 7.64 10 9 C7.33289346 8.84759391 5.5494129 8.50635081 3.5546875 6.66796875 C0 2.49375 0 2.49375 0 0 Z " fill="#CB9973" transform="translate(250,177)"/>
<path d="M0 0 C2.31 0.33 4.62 0.66 7 1 C6.34 2.32 5.68 3.64 5 5 C4.34 4.67 3.68 4.34 3 4 C2.67 4.66 2.34 5.32 2 6 C0.02 6 -1.96 6 -4 6 C-4.33 4.68 -4.66 3.36 -5 2 C-3.68 2 -2.36 2 -1 2 C-0.67 1.34 -0.34 0.68 0 0 Z " fill="#094128" transform="translate(238,288)"/>
<path d="M0 0 C1 3 1 3 0.3125 5.625 C-1 8 -1 8 -3 8.875 C-5 9 -5 9 -7 8 C-7 6.68 -7 5.36 -7 4 C-2.77777778 0 -2.77777778 0 0 0 Z " fill="#093F28" transform="translate(172,267)"/>
<path d="M0 0 C-0.99 1.485 -0.99 1.485 -2 3 C-1.67 3.99 -1.34 4.98 -1 6 C-2.27875 5.95875 -3.5575 5.9175 -4.875 5.875 C-7.01871492 5.75787127 -7.01871492 5.75787127 -9 6 C-9.66 6.66 -10.32 7.32 -11 8 C-10.67 6.35 -10.34 4.7 -10 3 C-9.34 3 -8.68 3 -8 3 C-8 2.34 -8 1.68 -8 1 C-5.07175348 0.02391783 -3.04386724 -0.08226668 0 0 Z " fill="#094029" transform="translate(228,235)"/>
<path d="M0 0 C2.79703452 1.39851726 2.86808055 3.13690964 4 6 C4.8353125 7.0209375 4.8353125 7.0209375 5.6875 8.0625 C7 10 7 10 6.6875 12.25 C6.460625 12.8275 6.23375 13.405 6 14 C6 13.34 6 12.68 6 12 C5.34 12 4.68 12 4 12 C4 10.68 4 9.36 4 8 C2.02 8.99 2.02 8.99 0 10 C0 9.34 0 8.68 0 8 C-0.66 8 -1.32 8 -2 8 C-1.34 6.35 -0.68 4.7 0 3 C-0.66 2.67 -1.32 2.34 -2 2 C-1.34 2 -0.68 2 0 2 C0 1.34 0 0.68 0 0 Z " fill="#44705C" transform="translate(201,283)"/>
<path d="M0 0 C1.08984375 1.81640625 1.08984375 1.81640625 2 4 C1.01712992 6.00847365 0.01622658 8.00819591 -1 10 C-0.79564192 12.78647557 -0.79564192 12.78647557 0 15 C-0.804375 15.12375 -1.60875 15.2475 -2.4375 15.375 C-3.283125 15.58125 -4.12875 15.7875 -5 16 C-5.33 16.66 -5.66 17.32 -6 18 C-6.66 17.67 -7.32 17.34 -8 17 C-7.67386719 16.52691406 -7.34773438 16.05382812 -7.01171875 15.56640625 C-3.71454814 10.57688259 -1.63541351 5.74389135 0 0 Z " fill="#406D58" transform="translate(384,251)"/>
<path d="M0 0 C4.62 0 9.24 0 14 0 C14 0.99 14 1.98 14 3 C10.78548731 4.60725635 7.56387464 4.05748185 4 4 C4.66 3.34 5.32 2.68 6 2 C4.35 2 2.7 2 1 2 C0.67 1.34 0.34 0.68 0 0 Z " fill="#CAA07D" transform="translate(287,194)"/>
<path d="M0 0 C0.99 0.33 1.98 0.66 3 1 C2.3203125 2.890625 2.3203125 2.890625 1 5 C-1.3828125 6.046875 -1.3828125 6.046875 -4.125 6.75 C-5.03507812 6.99234375 -5.94515625 7.2346875 -6.8828125 7.484375 C-7.93082031 7.73960937 -7.93082031 7.73960937 -9 8 C-8.67 6.35 -8.34 4.7 -8 3 C-6.865625 2.690625 -5.73125 2.38125 -4.5625 2.0625 C-1.21224901 1.37075469 -1.21224901 1.37075469 0 0 Z " fill="#0A3F27" transform="translate(333,240)"/>
<path d="M0 0 C0.928125 0.2784375 0.928125 0.2784375 1.875 0.5625 C4.04160178 1.23686176 4.04160178 1.23686176 6 0 C6 0.99 6 1.98 6 3 C8.31 3.33 10.62 3.66 13 4 C13 4.66 13 5.32 13 6 C11.20906809 6.08086147 9.41710372 6.13912702 7.625 6.1875 C6.12839844 6.23970703 6.12839844 6.23970703 4.6015625 6.29296875 C3.74304688 6.19628906 2.88453125 6.09960938 2 6 C0 3 0 3 0 0 Z " fill="#355D4B" transform="translate(360,274)"/>
<path d="M0 0 C-0.3125 1.9375 -0.3125 1.9375 -1 4 C-4 5 -4 5 -5.6875 4.5625 C-9.14040089 3.72260519 -12.45112343 3.94085206 -16 4 C-16 3.67 -16 3.34 -16 3 C-5.62642369 -0.44419134 -5.62642369 -0.44419134 0 0 Z " fill="#466C5B" transform="translate(220,306)"/>
<path d="M0 0 C0.66 0.33 1.32 0.66 2 1 C1.8125 2.875 1.8125 2.875 1 5 C0.175 5.309375 -0.65 5.61875 -1.5 5.9375 C-2.325 6.288125 -3.15 6.63875 -4 7 C-4.89386164 9.54775306 -4.89386164 9.54775306 -5 12 C-6.37432457 8.18243176 -5.67975039 4.92744671 -5 1 C-4.01 1 -3.02 1 -2 1 C-1.67 1.66 -1.34 2.32 -1 3 C-0.67 2.01 -0.34 1.02 0 0 Z " fill="#093E27" transform="translate(179,228)"/>
<path d="M0 0 C2.9375 0.75 2.9375 0.75 6 2 C6.875 4.125 6.875 4.125 7 6 C6.38125 6.144375 5.7625 6.28875 5.125 6.4375 C2.96741678 6.93152225 2.96741678 6.93152225 1 8 C0.814375 7.071875 0.814375 7.071875 0.625 6.125 C0.12802644 3.80879168 0.12802644 3.80879168 -2 2 C-1.34 1.34 -0.68 0.68 0 0 Z " fill="#BF9773" transform="translate(281,275)"/>
<path d="M0 0 C0.66 0 1.32 0 2 0 C2.6875 3.3125 2.6875 3.3125 3 7 C1.6875 8.9375 1.6875 8.9375 0 10 C-0.66 10 -1.32 10 -2 10 C-2.33 11.65 -2.66 13.3 -3 15 C-4.57156655 11.8568669 -3.11705576 9.634536 -2.0625 6.375 C-1.68222656 5.18648438 -1.30195313 3.99796875 -0.91015625 2.7734375 C-0.60980469 1.85820312 -0.30945313 0.94296875 0 0 Z " fill="#46695A" transform="translate(167,261)"/>
<path d="M0 0 C0 0.66 0 1.32 0 2 C-2.64 2 -5.28 2 -8 2 C-8 3.32 -8 4.64 -8 6 C-9.32 6 -10.64 6 -12 6 C-12 4.68 -12 3.36 -12 2 C-11.34 2 -10.68 2 -10 2 C-10 1.34 -10 0.68 -10 0 C-6.42355152 -1.2380014 -3.66305234 -0.74926071 0 0 Z " fill="#36594A" transform="translate(364,220)"/>
<path d="M0 0 C0.8971875 0.309375 0.8971875 0.309375 1.8125 0.625 C1.4375 3.0625 1.4375 3.0625 0.8125 5.625 C-1.89629335 6.97939668 -4.19683268 6.69001451 -7.1875 6.625 C-6.8575 5.965 -6.5275 5.305 -6.1875 4.625 C-5.5275 4.625 -4.8675 4.625 -4.1875 4.625 C-4.5175 3.635 -4.8475 2.645 -5.1875 1.625 C-2.1875 -0.375 -2.1875 -0.375 0 0 Z " fill="#1B4D38" transform="translate(215.1875,314.375)"/>
<path d="M0 0 C0.33 1.32 0.66 2.64 1 4 C0.34 4 -0.32 4 -1 4 C-0.67 4.66 -0.34 5.32 0 6 C0.99 5.34 1.98 4.68 3 4 C3.99 4.33 4.98 4.66 6 5 C3.60490662 7.89932357 1.68754757 8.50168276 -2 9 C-2.6875 6.75 -2.6875 6.75 -3 4 C-1.5625 1.6875 -1.5625 1.6875 0 0 Z " fill="#466C5A" transform="translate(335,247)"/>
<path d="M0 0 C1.03864166 3.11592499 1.09036928 4.0262656 0 7 C-0.99 7.495 -0.99 7.495 -2 8 C-2.33 8.99 -2.66 9.98 -3 11 C-3.99 10.67 -4.98 10.34 -6 10 C-6 8.68 -6 7.36 -6 6 C-5.34 5.67 -4.68 5.34 -4 5 C-3.67 4.01 -3.34 3.02 -3 2 C-2.01 2 -1.02 2 0 2 C0 1.34 0 0.68 0 0 Z " fill="#0A4028" transform="translate(229,249)"/>
<path d="M0 0 C0 3 0 3 -1.1875 4.75 C-3 6 -3 6 -5.6875 5.6875 C-6.450625 5.460625 -7.21375 5.23375 -8 5 C-7.25 2.5625 -7.25 2.5625 -6 0 C-3.40713222 -1.13437965 -2.55267344 -1.27633672 0 0 Z " fill="#0A3F27" transform="translate(156,244)"/>
<path d="M0 0 C0.98484375 0.01804688 1.9696875 0.03609375 2.984375 0.0546875 C4.10585938 0.08949219 4.10585938 0.08949219 5.25 0.125 C5.25 0.455 5.25 0.785 5.25 1.125 C3.91195313 1.38023437 3.91195313 1.38023437 2.546875 1.640625 C1.37640625 1.88296875 0.2059375 2.1253125 -1 2.375 C-2.16015625 2.60703125 -3.3203125 2.8390625 -4.515625 3.078125 C-7.96862471 4.19576259 -9.45270657 5.37279698 -11.75 8.125 C-12.74 7.795 -13.73 7.465 -14.75 7.125 C-9.87852858 1.98289128 -7.15396072 -0.1703324 0 0 Z " fill="#496859" transform="translate(384.75,234.875)"/>
<path d="M0 0 C1.98 0 3.96 0 6 0 C5.25 2.9375 5.25 2.9375 4 6 C2 6.9375 2 6.9375 0 7 C-0.66 6.67 -1.32 6.34 -2 6 C-2 5.01 -2 4.02 -2 3 C-1.34 3 -0.68 3 0 3 C0 2.01 0 1.02 0 0 Z " fill="#1B4E38" transform="translate(185,293)"/>
<path d="M0 0 C-2.36039038 2.7330836 -4.52395748 4.00684499 -8 5 C-11.37932259 4.68564441 -12.57479454 4.42520546 -15 2 C-14.34 2 -13.68 2 -13 2 C-12.67 1.34 -12.34 0.68 -12 0 C-12 0.99 -12 1.98 -12 3 C-11.07767578 2.54947266 -11.07767578 2.54947266 -10.13671875 2.08984375 C-9.32847656 1.70957031 -8.52023437 1.32929688 -7.6875 0.9375 C-6.88699219 0.55464844 -6.08648437 0.17179687 -5.26171875 -0.22265625 C-3 -1 -3 -1 0 0 Z " fill="#345849" transform="translate(398,275)"/>
<path d="M0 0 C1.85776765 3.13498292 2.20140476 5.37471432 2 9 C1.34 9 0.68 9 0 9 C-0.33 12.63 -0.66 16.26 -1 20 C-1.33 20 -1.66 20 -2 20 C-2.0544452 17.79194476 -2.09299283 15.58349446 -2.125 13.375 C-2.14820313 12.14523437 -2.17140625 10.91546875 -2.1953125 9.6484375 C-2.0030428 6.05683959 -1.30258556 3.33338825 0 0 Z " fill="#3F6452" transform="translate(229,264)"/>
<path d="M0 0 C2.875 -0.1875 2.875 -0.1875 6 0 C8.23551759 3.35327639 8.17283528 3.90743657 7.625 7.6875 C7.51414062 8.49574219 7.40328125 9.30398437 7.2890625 10.13671875 C7.19367188 10.75160156 7.09828125 11.36648437 7 12 C6.34 12 5.68 12 5 12 C4.67 13.65 4.34 15.3 4 17 C2.875 13.25 2.875 13.25 4 11 C4.06950541 9.45976004 4.08452357 7.91665012 4.0625 6.375 C4.05347656 5.55773437 4.04445313 4.74046875 4.03515625 3.8984375 C4.02355469 3.27195313 4.01195313 2.64546875 4 2 C2.68 1.34 1.36 0.68 0 0 Z " fill="#769588" transform="translate(118,233)"/>
<path d="M0 0 C2.97 0 5.94 0 9 0 C9 0.66 9 1.32 9 2 C7.329375 2.12375 7.329375 2.12375 5.625 2.25 C1.94246056 2.57873787 1.94246056 2.57873787 0.5625 5.0625 C0.376875 5.701875 0.19125 6.34125 0 7 C-0.66 7 -1.32 7 -2 7 C-1.125 2.25 -1.125 2.25 0 0 Z " fill="#3E6353" transform="translate(349,238)"/>
<path d="M0 0 C2.4375 0.6875 2.4375 0.6875 4.4375 1.6875 C4.4375 2.3475 4.4375 3.0075 4.4375 3.6875 C5.0975 3.6875 5.7575 3.6875 6.4375 3.6875 C6.1075 4.6775 5.7775 5.6675 5.4375 6.6875 C2.9375 5.375 2.9375 5.375 0.4375 3.6875 C0.4375 2.6975 0.4375 1.7075 0.4375 0.6875 C-2.07215614 1.39089566 -2.07215614 1.39089566 -4.5625 2.6875 C-5.44943303 4.72855639 -5.44943303 4.72855639 -5.5625 6.6875 C-5.75 4.3125 -5.75 4.3125 -5.5625 1.6875 C-2.5625 -0.3125 -2.5625 -0.3125 0 0 Z " fill="#688977" transform="translate(176.5625,218.3125)"/>
<path d="M0 0 C2.4164124 0.48328248 4.65832183 1.21944061 7 2 C6.67 2.99 6.34 3.98 6 5 C4.68 5 3.36 5 2 5 C0.32774271 5.30404678 -1.34080104 5.63128912 -3 6 C-1.125 1.125 -1.125 1.125 0 0 Z " fill="#2E5C48" transform="translate(181,264)"/>
<path d="M0 0 C-0.875 7.625 -0.875 7.625 -2 11 C-2.99 11 -3.98 11 -5 11 C-5.49095023 4.61764706 -5.49095023 4.61764706 -3.0625 1.5625 C-1 0 -1 0 0 0 Z " fill="#485C48" transform="translate(292,259)"/>
<path d="M0 0 C0.99 0.99 1.98 1.98 3 3 C2.67 3.99 2.34 4.98 2 6 C1.01 6 0.02 6 -1 6 C-1.66 6.66 -2.32 7.32 -3 8 C-3.99 8 -4.98 8 -6 8 C-5.8125 6.125 -5.8125 6.125 -5 4 C-2.4375 2.75 -2.4375 2.75 0 2 C0 1.34 0 0.68 0 0 Z " fill="#093F28" transform="translate(297,244)"/>
<path d="M0 0 C0.66 0 1.32 0 2 0 C5 5.625 5 5.625 5 9 C3.68 9 2.36 9 1 9 C1 8.34 1 7.68 1 7 C0.34 6.67 -0.32 6.34 -1 6 C-1 3 -1 3 0 0 Z " fill="#D2A381" transform="translate(273,235)"/>
<path d="M0 0 C2.625 0.375 2.625 0.375 5 1 C3.625 3.5 3.625 3.5 2 6 C1.34 6 0.68 6 0 6 C-0.33 6.99 -0.66 7.98 -1 9 C-1.625 5.625 -1.625 5.625 -2 2 C-1.34 1.34 -0.68 0.68 0 0 Z " fill="#094027" transform="translate(351,240)"/>
<path d="M0 0 C0.33 1.32 0.66 2.64 1 4 C0.34 4 -0.32 4 -1 4 C-0.67 5.65 -0.34 7.3 0 9 C-1.97746603 9.73080266 -3.98072489 10.39421747 -6 11 C-6.66 10.67 -7.32 10.34 -8 10 C-7.50628906 9.44570313 -7.01257813 8.89140625 -6.50390625 8.3203125 C-5.86324219 7.59585937 -5.22257812 6.87140625 -4.5625 6.125 C-3.92441406 5.40570313 -3.28632813 4.68640625 -2.62890625 3.9453125 C-0.94985535 2.09249509 -0.94985535 2.09249509 0 0 Z " fill="#4B7565" transform="translate(298,270)"/>
<path d="M0 0 C0.66 0 1.32 0 2 0 C1.67 2.97 1.34 5.94 1 9 C2.32 9.33 3.64 9.66 5 10 C3.35 10 1.7 10 0 10 C0 9.34 0 8.68 0 8 C-0.99 8.33 -1.98 8.66 -3 9 C-1.125 2.25 -1.125 2.25 0 0 Z " fill="#265341" transform="translate(349,263)"/>
<path d="M0 0 C1.79133978 -0.05391993 3.58313899 -0.09275571 5.375 -0.125 C6.37273437 -0.14820313 7.37046875 -0.17140625 8.3984375 -0.1953125 C11 0 11 0 13 2 C12.625 4.125 12.625 4.125 12 6 C12 5.01 12 4.02 12 3 C11.42765625 3.19464844 10.8553125 3.38929688 10.265625 3.58984375 C7.55358006 4.0808174 6.27004948 3.61252062 3.75 2.5625 C3.04359375 2.27503906 2.3371875 1.98757813 1.609375 1.69140625 C1.07828125 1.46324219 0.5471875 1.23507812 0 1 C0 0.67 0 0.34 0 0 Z " fill="#335747" transform="translate(190,257)"/>
<path d="M0 0 C0.33 0 0.66 0 1 0 C1.05428973 2.22889496 1.09292338 4.45817471 1.125 6.6875 C1.14820313 7.92886719 1.17140625 9.17023438 1.1953125 10.44921875 C1.01032021 13.81237857 0.45767895 15.9985587 -1 19 C-1.66 19 -2.32 19 -3 19 C-2.85691406 18.15179688 -2.71382812 17.30359375 -2.56640625 16.4296875 C-1.99968273 12.99807888 -1.4637299 9.56303536 -0.9375 6.125 C-0.67259766 4.39636719 -0.67259766 4.39636719 -0.40234375 2.6328125 C-0.26957031 1.76398438 -0.13679687 0.89515625 0 0 Z " fill="#577869" transform="translate(172,237)"/>
<path d="M0 0 C-0.99 1.485 -0.99 1.485 -2 3 C-5.125 3.1875 -5.125 3.1875 -8 3 C-8.33 4.32 -8.66 5.64 -9 7 C-10.32 6.67 -11.64 6.34 -13 6 C-12.67 5.34 -12.34 4.68 -12 4 C-11.01 4 -10.02 4 -9 4 C-9 3.34 -9 2.68 -9 2 C-5.86501708 0.14223235 -3.62528568 -0.20140476 0 0 Z " fill="#3C6351" transform="translate(333,240)"/>
<path d="M0 0 C0.99 0.99 1.98 1.98 3 3 C3.99 2.67 4.98 2.34 6 2 C5.34 4.64 4.68 7.28 4 10 C3.67 8.68 3.34 7.36 3 6 C2.34 6 1.68 6 1 6 C0.34 6.66 -0.32 7.32 -1 8 C-0.67 5.36 -0.34 2.72 0 0 Z " fill="#517664" transform="translate(253,233)"/>
<path d="M0 0 C2.4375 0.75 2.4375 0.75 5 2 C5.8125 4.125 5.8125 4.125 6 6 C2 6 2 6 0 5 C0 3.35 0 1.7 0 0 Z " fill="#CEAA91" transform="translate(286,210)"/>
<path d="M0 0 C0.99 0 1.98 0 3 0 C2.46939601 4.51013391 0.69113883 7.38378219 -2 11 C-2.33 11 -2.66 11 -3 11 C-3 9.35 -3 7.7 -3 6 C-2.01 6 -1.02 6 0 6 C0 5.01 0 4.02 0 3 C-0.66 2.67 -1.32 2.34 -2 2 C-1.34 1.34 -0.68 0.68 0 0 Z " fill="#D1AF95" transform="translate(288,176)"/>
<path d="M0 0 C0.66 0.33 1.32 0.66 2 1 C1.34 2.32 0.68 3.64 0 5 C1.65 5.33 3.3 5.66 5 6 C4.360625 6.12375 3.72125 6.2475 3.0625 6.375 C2.0415625 6.684375 2.0415625 6.684375 1 7 C0.67 7.66 0.34 8.32 0 9 C-1.32 8.67 -2.64 8.34 -4 8 C-3.67 7.401875 -3.34 6.80375 -3 6.1875 C-1.79212012 3.94613529 -1.79212012 3.94613529 -2 1 C-1.34 0.67 -0.68 0.34 0 0 Z " fill="#0B3F29" transform="translate(273,297)"/>
<path d="M0 0 C0 1.32 0 2.64 0 4 C-2.97 4 -5.94 4 -9 4 C-9 3.01 -9 2.02 -9 1 C-5.86314002 -0.04561999 -3.27634061 0 0 0 Z " fill="#1B4A37" transform="translate(360,297)"/>
<path d="M0 0 C0 0.66 0 1.32 0 2 C1.65 2 3.3 2 5 2 C5 2.33 5 2.66 5 3 C-0.07476794 4.26305335 -4.72796354 5.27036084 -10 5 C-9.360625 4.896875 -8.72125 4.79375 -8.0625 4.6875 C-7.381875 4.460625 -6.70125 4.23375 -6 4 C-5.67 3.01 -5.34 2.02 -5 1 C-2 0 -2 0 0 0 Z " fill="#345D4C" transform="translate(251,307)"/>
<path d="M0 0 C2.31 0.33 4.62 0.66 7 1 C6.01 1.495 6.01 1.495 5 2 C5.33 2.99 5.66 3.98 6 5 C4.125 5.625 4.125 5.625 2 6 C1.34 5.34 0.68 4.68 0 4 C-0.99 4.495 -0.99 4.495 -2 5 C-1.34 3.35 -0.68 1.7 0 0 Z " fill="#0A4229" transform="translate(181,279)"/>
<path d="M0 0 C0.66 0 1.32 0 2 0 C1.09276387 4.68738665 0.0452733 9.34193744 -1 14 C-1.33 14 -1.66 14 -2 14 C-3.4556234 5.79238853 -3.4556234 5.79238853 -1.5625 2.5 C-1.046875 2.005 -0.53125 1.51 0 1 C0 0.67 0 0.34 0 0 Z " fill="#275240" transform="translate(323,254)"/>
<path d="M0 0 C-0.33 1.65 -0.66 3.3 -1 5 C-2.32 5.33 -3.64 5.66 -5 6 C-5.99 4.68 -6.98 3.36 -8 2 C-4.91190305 0.23537317 -3.76687864 0 0 0 Z " fill="#083F27" transform="translate(257,225)"/>
<path d="M0 0 C6.4 -0.36923077 6.4 -0.36923077 9.4375 1.5 C9.953125 1.995 10.46875 2.49 11 3 C10.34 3.66 9.68 4.32 9 5 C8.01 4.67 7.02 4.34 6 4 C5.319375 3.87625 4.63875 3.7525 3.9375 3.625 C2 3 2 3 0 0 Z " fill="#38654E" transform="translate(348,294)"/>
<path d="M0 0 C1.98 1.65 3.96 3.3 6 5 C5.01 5.495 5.01 5.495 4 6 C3.34 5.67 2.68 5.34 2 5 C1.67 6.32 1.34 7.64 1 9 C-0.32 7.68 -1.64 6.36 -3 5 C-2.01 4.67 -1.02 4.34 0 4 C0 2.68 0 1.36 0 0 Z " fill="#DCBEA6" transform="translate(284,205)"/>
<path d="M0 0 C3.465 1.485 3.465 1.485 7 3 C5.35 4.32 3.7 5.64 2 7 C1.34 6.01 0.68 5.02 0 4 C-0.66 3.67 -1.32 3.34 -2 3 C-1.34 2.01 -0.68 1.02 0 0 Z " fill="#D7AF95" transform="translate(258,203)"/>
<path d="M0 0 C2.95183101 2.95183101 3.08663988 5.95511947 4 10 C1.525 9.01 1.525 9.01 -1 8 C-1.04241723 5.66705225 -1.04092937 3.33297433 -1 1 C-0.67 0.67 -0.34 0.34 0 0 Z " fill="#5E7D6F" transform="translate(169,324)"/>
<path d="M0 0 C0.66 0.66 1.32 1.32 2 2 C1.67 2.99 1.34 3.98 1 5 C-0.65 4.67 -2.3 4.34 -4 4 C-4 3.01 -4 2.02 -4 1 C-2.68 1.33 -1.36 1.66 0 2 C0 1.34 0 0.68 0 0 Z M-8 3 C-6.68 3.66 -5.36 4.32 -4 5 C-4.99 5.33 -5.98 5.66 -7 6 C-7.66 5.34 -8.32 4.68 -9 4 C-8.67 3.67 -8.34 3.34 -8 3 Z " fill="#073C26" transform="translate(333,274)"/>
<path d="M0 0 C0.28875 0.61875 0.5775 1.2375 0.875 1.875 C1.93720042 4.13325765 1.93720042 4.13325765 4 6 C3.01 6 2.02 6 1 6 C0.34 7.65 -0.32 9.3 -1 11 C-1.66 11 -2.32 11 -3 11 C-2.32829194 7.1936543 -1.27253436 3.64793184 0 0 Z " fill="#3C6655" transform="translate(115,264)"/>
<path d="M0 0 C0 2 0 2 -1.875 4.125 C-4 6 -4 6 -6 6 C-6.33 6.66 -6.66 7.32 -7 8 C-7.66 7.01 -8.32 6.02 -9 5 C-8.01 4.67 -7.02 4.34 -6 4 C-6 3.34 -6 2.68 -6 2 C-3 0 -3 0 0 0 Z " fill="#345E4C" transform="translate(297,244)"/>
<path d="M0 0 C0.66 0 1.32 0 2 0 C-0.89066059 9.59453303 -0.89066059 9.59453303 -4 13 C-4 11.02 -4 9.04 -4 7 C-3.34 7 -2.68 7 -2 7 C-2.33 5.68 -2.66 4.36 -3 3 C-2.01 3 -1.02 3 0 3 C0 2.01 0 1.02 0 0 Z " fill="#5C7B6E" transform="translate(248,239)"/>
<path d="M0 0 C1.32 0.66 2.64 1.32 4 2 C3.34 2.66 2.68 3.32 2 4 C1.34 4 0.68 4 0 4 C-0.33 4.99 -0.66 5.98 -1 7 C-1.99 7 -2.98 7 -4 7 C-3.43628586 3.73045798 -2.50037734 2.17424117 0 0 Z " fill="#0A4028" transform="translate(115,297)"/>
<path d="M0 0 C0.66 0 1.32 0 2 0 C1.67 0.99 1.34 1.98 1 3 C0.34 2.34 -0.32 1.68 -1 1 C-0.67 0.67 -0.34 0.34 0 0 Z M-4 2 C-3.01 2 -2.02 2 -1 2 C-0.67 3.32 -0.34 4.64 0 6 C-1.98 6.33 -3.96 6.66 -6 7 C-5.34 5.35 -4.68 3.7 -4 2 Z " fill="#094029" transform="translate(228,286)"/>
<path d="M0 0 C1.5625 1.75 1.5625 1.75 3 4 C2.6875 6.25 2.6875 6.25 2 8 C1.01 7.67 0.02 7.34 -1 7 C-1 7.66 -1 8.32 -1 9 C-1.66 8.67 -2.32 8.34 -3 8 C-2.01 5.36 -1.02 2.72 0 0 Z " fill="#336654" transform="translate(162,276)"/>
<path d="M0 0 C0.66 0.33 1.32 0.66 2 1 C2 1.66 2 2.32 2 3 C4.97065509 2.65772428 4.97065509 2.65772428 8 2 C8.33 1.34 8.66 0.68 9 0 C9 1.32 9 2.64 9 4 C4.94568308 5.15837626 2.78187881 4.83691257 -1 3 C-0.67 2.01 -0.34 1.02 0 0 Z " fill="#395E4F" transform="translate(96,260)"/>
<path d="M0 0 C0.144375 0.61875 0.28875 1.2375 0.4375 1.875 C0.93152225 4.03258322 0.93152225 4.03258322 2 6 C2.33 6.66 2.66 7.32 3 8 C2.195625 8.268125 1.39125 8.53625 0.5625 8.8125 C-0.283125 9.204375 -1.12875 9.59625 -2 10 C-2.33 10.99 -2.66 11.98 -3 13 C-2.45144652 8.428721 -1.58255197 4.32564205 0 0 Z " fill="#538173" transform="translate(210,253)"/>
<path d="M0 0 C-0.33 0.99 -0.66 1.98 -1 3 C-6.20754717 5.26415094 -6.20754717 5.26415094 -10 4 C-10 3.34 -10 2.68 -10 2 C-6.49223216 0.39644899 -3.85645121 -0.22036864 0 0 Z " fill="#3D6051" transform="translate(122,225)"/>
<path d="M0 0 C0.66 0.33 1.32 0.66 2 1 C1.34 2.65 0.68 4.3 0 6 C-0.66 6 -1.32 6 -2 6 C-2 6.99 -2 7.98 -2 9 C-2.66 9 -3.32 9 -4 9 C-4 7.68 -4 6.36 -4 5 C-3.34 5 -2.68 5 -2 5 C-1.7834375 4.0409375 -1.7834375 4.0409375 -1.5625 3.0625 C-1 1 -1 1 0 0 Z " fill="#093F28" transform="translate(301,269)"/>
<path d="M0 0 C7.57142857 1.85714286 7.57142857 1.85714286 10 5 C8.68 5 7.36 5 6 5 C6 4.34 6 3.68 6 3 C5.38125 3.185625 4.7625 3.37125 4.125 3.5625 C2 4 2 4 0 3 C0 2.01 0 1.02 0 0 Z " fill="#3D6254" transform="translate(123,224)"/>
<path d="M0 0 C5.94 0.99 5.94 0.99 12 2 C7.8204355 4.78637633 5.85331323 3.79562512 1 3 C0.67 2.01 0.34 1.02 0 0 Z " fill="#446655" transform="translate(109,309)"/>
<path d="M0 0 C1.60294922 0.01353516 1.60294922 0.01353516 3.23828125 0.02734375 C4.04652344 0.03894531 4.85476563 0.05054688 5.6875 0.0625 C5.6875 0.3925 5.6875 0.7225 5.6875 1.0625 C4.90503906 1.11148437 4.12257813 1.16046875 3.31640625 1.2109375 C2.30449219 1.28570312 1.29257812 1.36046875 0.25 1.4375 C-0.75933594 1.50710938 -1.76867187 1.57671875 -2.80859375 1.6484375 C-4.04802734 1.85339844 -4.04802734 1.85339844 -5.3125 2.0625 C-5.6425 2.7225 -5.9725 3.3825 -6.3125 4.0625 C-6.3125 3.4025 -6.3125 2.7425 -6.3125 2.0625 C-7.9625 2.0625 -9.6125 2.0625 -11.3125 2.0625 C-11.3125 1.7325 -11.3125 1.4025 -11.3125 1.0625 C-7.47525828 0.15836327 -3.93747726 -0.04326898 0 0 Z " fill="#537969" transform="translate(276.3125,295.9375)"/>
<path d="M0 0 C0.66 0.99 1.32 1.98 2 3 C1.071875 3.4021875 1.071875 3.4021875 0.125 3.8125 C-2.2995233 4.95556848 -2.2995233 4.95556848 -4 8 C-4.99 7.67 -5.98 7.34 -7 7 C-4.66666667 4.66666667 -2.33333333 2.33333333 0 0 Z " fill="#567D6F" transform="translate(226,284)"/>
<path d="M0 0 C0.33 0 0.66 0 1 0 C2.55577239 5.65735415 1.24281523 8.79666866 -1 14 C-1.33 14 -1.66 14 -2 14 C-1.03644647 4.58997722 -1.03644647 4.58997722 0 0 Z " fill="#688779" transform="translate(205,269)"/>
<path d="M0 0 C0.99 0.33 1.98 0.66 3 1 C3 2.98 3 4.96 3 7 C1.68 6.67 0.36 6.34 -1 6 C-0.67 4.02 -0.34 2.04 0 0 Z " fill="#13422E" transform="translate(253,238)"/>
<path d="M0 0 C2.375 -0.1875 2.375 -0.1875 5 0 C5.66 0.99 6.32 1.98 7 3 C5.35 3.66 3.7 4.32 2 5 C1.34 3.35 0.68 1.7 0 0 Z " fill="#D2B39C" transform="translate(250,177)"/>
<path d="M0 0 C0.66 0 1.32 0 2 0 C2.66 1.98 3.32 3.96 4 6 C2.02 6 0.04 6 -2 6 C-2 3 -2 3 0 0 Z " fill="#073C25" transform="translate(125,297)"/>
<path d="M0 0 C0.33 0 0.66 0 1 0 C1.1875 3.375 1.1875 3.375 1 7 C0.01 7.66 -0.98 8.32 -2 9 C-2.33 9.99 -2.66 10.98 -3 12 C-3.66 11.67 -4.32 11.34 -5 11 C-3.35 7.37 -1.7 3.74 0 0 Z " fill="#5A766A" transform="translate(136,272)"/>
<path d="M0 0 C1.32 0 2.64 0 4 0 C4 1.32 4 2.64 4 4 C2.35 4.33 0.7 4.66 -1 5 C-0.67 3.35 -0.34 1.7 0 0 Z " fill="#0A4129" transform="translate(403,261)"/>
<path d="M0 0 C0.33 0 0.66 0 1 0 C1.33 2.97 1.66 5.94 2 9 C0.35 9.33 -1.3 9.66 -3 10 C-2.21302675 6.58978257 -1.12880057 3.31114834 0 0 Z " fill="#285845" transform="translate(102,251)"/>
<path d="M0 0 C0.66 0.66 1.32 1.32 2 2 C1.625 4.625 1.625 4.625 1 7 C0.01 7.33 -0.98 7.66 -2 8 C-1.125 1.125 -1.125 1.125 0 0 Z " fill="#0C3F28" transform="translate(220,247)"/>
<path d="M0 0 C0.99 0.33 1.98 0.66 3 1 C2.67 2.98 2.34 4.96 2 7 C1.01 6.67 0.02 6.34 -1 6 C-1.042721 4.33388095 -1.04063832 2.66617115 -1 1 C-0.67 0.67 -0.34 0.34 0 0 Z " fill="#234C37" transform="translate(362,222)"/>
<path d="M0 0 C0.99 0.33 1.98 0.66 3 1 C1.29171079 3.10633718 0.47851584 3.93801608 -2.26171875 4.29296875 C-3.06222656 4.25816406 -3.86273438 4.22335937 -4.6875 4.1875 C-5.49574219 4.16042969 -6.30398438 4.13335937 -7.13671875 4.10546875 C-7.75160156 4.07066406 -8.36648438 4.03585937 -9 4 C-9 3.67 -9 3.34 -9 3 C-7.88625 2.690625 -6.7725 2.38125 -5.625 2.0625 C-2.2054845 1.17673517 -2.2054845 1.17673517 0 0 Z " fill="#2F5745" transform="translate(294,284)"/>
<path d="M0 0 C0.66 0 1.32 0 2 0 C2 0.66 2 1.32 2 2 C1.01 2.495 1.01 2.495 0 3 C-0.65213292 5.02463255 -0.65213292 5.02463255 -1 7 C-2.32 7.33 -3.64 7.66 -5 8 C-4.67 6.68 -4.34 5.36 -4 4 C-3.34 4 -2.68 4 -2 4 C-1.34 2.68 -0.68 1.36 0 0 Z " fill="#496B5D" transform="translate(246,227)"/>
<path d="M0 0 C2.97 0 5.94 0 9 0 C8.67 0.99 8.34 1.98 8 3 C5.6568787 2.74438677 3.32156597 2.40729228 1 2 C0.67 1.34 0.34 0.68 0 0 Z " fill="#5E7D6E" transform="translate(142,307)"/>
<path d="M0 0 C0 0.66 0 1.32 0 2 C-1.32 1.67 -2.64 1.34 -4 1 C-4.33 1.66 -4.66 2.32 -5 3 C-6.32 2.01 -7.64 1.02 -9 0 C-5.93109813 -1.53445094 -3.29905734 -0.54984289 0 0 Z " fill="#4A7061" transform="translate(229,305)"/>
<path d="M0 0 C3.125 -0.1875 3.125 -0.1875 6 0 C5.67 1.32 5.34 2.64 5 4 C4.401875 3.835 3.80375 3.67 3.1875 3.5 C0.88655664 2.8885876 0.88655664 2.8885876 -2 3 C-1.34 2.01 -0.68 1.02 0 0 Z " fill="#073F26" transform="translate(295,296)"/>
<path d="M0 0 C1.32 0.66 2.64 1.32 4 2 C2.33333333 3.66666667 0.66666667 5.33333333 -1 7 C-1 6.34 -1 5.68 -1 5 C-1.66 5 -2.32 5 -3 5 C-1.125 1.125 -1.125 1.125 0 0 Z " fill="#24422A" transform="translate(285,280)"/>
<path d="M0 0 C-0.33 0.99 -0.66 1.98 -1 3 C-1.99 3 -2.98 3 -4 3 C-4.33 3.99 -4.66 4.98 -5 6 C-6 4 -6 4 -6 0 C-2.25 -1.125 -2.25 -1.125 0 0 Z " fill="#083F27" transform="translate(237,283)"/>
<path d="M0 0 C0 0.66 0 1.32 0 2 C-0.66 2 -1.32 2 -2 2 C-2 2.66 -2 3.32 -2 4 C-3.9375 3.625 -3.9375 3.625 -6 3 C-6.33 2.34 -6.66 1.68 -7 1 C-4.53721199 -0.231394 -2.7204945 -0.07159196 0 0 Z " fill="#1D4936" transform="translate(334,278)"/>
<path d="M0 0 C-0.60990891 3.55780196 -1.5783681 6.6828589 -3 10 C-3.33 10 -3.66 10 -4 10 C-4.20086443 6.28400809 -4.1519437 5.22791555 -2 2 C-2.66 1.67 -3.32 1.34 -4 1 C-2 0 -2 0 0 0 Z " fill="#3D6755" transform="translate(174,270)"/>
<path d="M0 0 C0.66 0.99 1.32 1.98 2 3 C0.68 4.32 -0.64 5.64 -2 7 C-3.32 6.34 -4.64 5.68 -6 5 C-4.02 3.35 -2.04 1.7 0 0 Z " fill="#476D5B" transform="translate(335,269)"/>
<path d="M0 0 C1.32 0.33 2.64 0.66 4 1 C3.34 3.31 2.68 5.62 2 8 C-0.1519437 4.77208445 -0.20086443 3.71599191 0 0 Z " fill="#064228" transform="translate(139,268)"/>
<path d="M0 0 C2.0625 0.4375 2.0625 0.4375 4 1 C4 1.99 4 2.98 4 4 C3.01 4.495 3.01 4.495 2 5 C1.67 4.34 1.34 3.68 1 3 C0.34 3.99 -0.32 4.98 -1 6 C-1.042721 4.33388095 -1.04063832 2.66617115 -1 1 C-0.67 0.67 -0.34 0.34 0 0 Z " fill="#CFA688" transform="translate(280,251)"/>
<path d="M0 0 C0.33 0 0.66 0 1 0 C1.1875 2.375 1.1875 2.375 1 5 C0.01 5.66 -0.98 6.32 -2 7 C-2.33 7.99 -2.66 8.98 -3 10 C-3.66 9.67 -4.32 9.34 -5 9 C-3.35 6.03 -1.7 3.06 0 0 Z " fill="#D3AE91" transform="translate(259,248)"/>
<path d="M0 0 C0.99 0.33 1.98 0.66 3 1 C3 1.99 3 2.98 3 4 C-0.465 5.485 -0.465 5.485 -4 7 C-4 6.01 -4 5.02 -4 4 C-3.01 4 -2.02 4 -1 4 C-0.67 2.68 -0.34 1.36 0 0 Z " fill="#0A412A" transform="translate(338,247)"/>
<path d="M0 0 C1.32 0.66 2.64 1.32 4 2 C3.75 3.875 3.75 3.875 3 6 C0.9375 7.25 0.9375 7.25 -1 8 C-0.67 5.36 -0.34 2.72 0 0 Z " fill="#0A3D27" transform="translate(139,292)"/>
<path d="M0 0 C0.99 0.33 1.98 0.66 3 1 C2.67 1.66 2.34 2.32 2 3 C-1.63 3 -5.26 3 -9 3 C-9 2.67 -9 2.34 -9 2 C-6.94921875 1.77213542 -4.8984375 1.54427083 -2.84765625 1.31640625 C-0.98859771 1.18113386 -0.98859771 1.18113386 0 0 Z " fill="#3F6255" transform="translate(241,292)"/>
<path d="M0 0 C1 3 1 3 -0.4375 6.1875 C-1.2109375 7.5796875 -1.2109375 7.5796875 -2 9 C-2.66 7.68 -3.32 6.36 -4 5 C-3.34 4.01 -2.68 3.02 -2 2 C-1.34 2 -0.68 2 0 2 C0 1.34 0 0.68 0 0 Z " fill="#3A6859" transform="translate(169,280)"/>
<path d="M0 0 C0.33 0 0.66 0 1 0 C1.4726477 8.19256018 1.4726477 8.19256018 -0.5 11.5625 C-0.995 12.036875 -1.49 12.51125 -2 13 C-2 11.02 -2 9.04 -2 7 C-1.34 7 -0.68 7 0 7 C0 4.69 0 2.38 0 0 Z " fill="#587D6F" transform="translate(203,261)"/>
<path d="M0 0 C1.65 0 3.3 0 5 0 C4.67 0.66 4.34 1.32 4 2 C3.34 2 2.68 2 2 2 C1.34 3.32 0.68 4.64 0 6 C-1.125 2.25 -1.125 2.25 0 0 Z " fill="#2A5741" transform="translate(327,246)"/>
<path d="M0 0 C1.65 0 3.3 0 5 0 C3.75 2 3.75 2 2 4 C0.68 4 -0.64 4 -2 4 C-2 3.34 -2 2.68 -2 2 C-1.34 2 -0.68 2 0 2 C0 1.34 0 0.68 0 0 Z " fill="#093E28" transform="translate(184,299)"/>
<path d="M0 0 C0.66 0.33 1.32 0.66 2 1 C0.68 3.31 -0.64 5.62 -2 8 C-2.33 7.34 -2.66 6.68 -3 6 C-3.66 5.67 -4.32 5.34 -5 5 C-3.625 3.5 -3.625 3.5 -2 2 C-1.34 2 -0.68 2 0 2 C0 1.34 0 0.68 0 0 Z " fill="#214C3B" transform="translate(163,292)"/>
<path d="M0 0 C2.475 0.495 2.475 0.495 5 1 C5 1.99 5 2.98 5 4 C3.35 3.67 1.7 3.34 0 3 C0 2.01 0 1.02 0 0 Z " fill="#0B4029" transform="translate(129,287)"/>
<path d="M0 0 C0.99 0.33 1.98 0.66 3 1 C1.515 4.96 1.515 4.96 0 9 C-0.95904856 5.16380575 -0.91892116 3.67568464 0 0 Z " fill="#5B8071" transform="translate(230,247)"/>
<path d="M0 0 C1.36125 0.12375 1.36125 0.12375 2.75 0.25 C0.68243723 3.0472908 -0.39440371 3.27692273 -3.9375 3.9375 C-5.030625 4.040625 -6.12375 4.14375 -7.25 4.25 C-4.83923194 1.28290085 -3.90322061 0.30024774 0 0 Z " fill="#4B6A5B" transform="translate(230.25,226.75)"/>
</svg>
